G75*
%MOIN*%
%OFA0B0*%
%FSLAX25Y25*%
%IPPOS*%
%LPD*%
%AMOC8*
5,1,8,0,0,1.08239X$1,22.5*
%
%ADD10C,0.00800*%
D10*
X0064831Y0092115D02*
X0076643Y0092115D01*
X0064831Y0092115D02*
X0064831Y0123611D01*
X0076643Y0123611D01*
X0077041Y0124573D01*
X0077463Y0125524D01*
X0077908Y0126465D01*
X0078376Y0127394D01*
X0078867Y0128312D01*
X0079380Y0129217D01*
X0079915Y0130110D01*
X0080471Y0130989D01*
X0081050Y0131854D01*
X0081649Y0132705D01*
X0082269Y0133541D01*
X0082909Y0134361D01*
X0083570Y0135166D01*
X0084249Y0135954D01*
X0084948Y0136725D01*
X0085666Y0137478D01*
X0086402Y0138214D01*
X0087156Y0138932D01*
X0087927Y0139630D01*
X0088715Y0140310D01*
X0089519Y0140970D01*
X0090340Y0141611D01*
X0091176Y0142230D01*
X0092026Y0142830D01*
X0092892Y0143408D01*
X0093771Y0143964D01*
X0094664Y0144499D01*
X0095569Y0145012D01*
X0096487Y0145503D01*
X0097417Y0145971D01*
X0098357Y0146415D01*
X0099309Y0146837D01*
X0100270Y0147235D01*
X0101241Y0147610D01*
X0102221Y0147960D01*
X0103209Y0148287D01*
X0104205Y0148589D01*
X0105208Y0148866D01*
X0106218Y0149119D01*
X0107233Y0149347D01*
X0108254Y0149550D01*
X0109279Y0149728D01*
X0110308Y0149881D01*
X0111341Y0150008D01*
X0112377Y0150110D01*
X0113415Y0150186D01*
X0114454Y0150237D01*
X0115495Y0150263D01*
X0116535Y0150263D01*
X0117576Y0150237D01*
X0118615Y0150186D01*
X0119653Y0150109D01*
X0120689Y0150007D01*
X0121721Y0149880D01*
X0122751Y0149727D01*
X0123776Y0149549D01*
X0124797Y0149346D01*
X0125812Y0149118D01*
X0126822Y0148865D01*
X0127825Y0148588D01*
X0128820Y0148286D01*
X0129809Y0147959D01*
X0130788Y0147608D01*
X0131759Y0147234D01*
X0132721Y0146836D01*
X0133672Y0146414D01*
X0134613Y0145969D01*
X0135542Y0145501D01*
X0136460Y0145010D01*
X0137366Y0144497D01*
X0138258Y0143962D01*
X0139137Y0143406D01*
X0140003Y0142827D01*
X0140854Y0142228D01*
X0141689Y0141608D01*
X0142510Y0140968D01*
X0143314Y0140308D01*
X0144102Y0139628D01*
X0144873Y0138929D01*
X0145627Y0138211D01*
X0146363Y0137476D01*
X0147080Y0136722D01*
X0147779Y0135951D01*
X0148459Y0135163D01*
X0149119Y0134358D01*
X0149759Y0133538D01*
X0150379Y0132702D01*
X0150978Y0131851D01*
X0151557Y0130986D01*
X0152113Y0130107D01*
X0152648Y0129214D01*
X0153161Y0128309D01*
X0153652Y0127391D01*
X0154120Y0126461D01*
X0154565Y0125520D01*
X0154986Y0124569D01*
X0155385Y0123608D01*
X0155759Y0122637D01*
X0156110Y0121657D01*
X0156436Y0120669D01*
X0156738Y0119673D01*
X0157016Y0118670D01*
X0157269Y0117660D01*
X0157497Y0116645D01*
X0157700Y0115624D01*
X0157878Y0114599D01*
X0158030Y0113569D01*
X0158158Y0112537D01*
X0158260Y0111501D01*
X0158336Y0110463D01*
X0158387Y0109424D01*
X0158413Y0108383D01*
X0158413Y0107343D01*
X0158387Y0106302D01*
X0158336Y0105263D01*
X0158260Y0104225D01*
X0158158Y0103189D01*
X0158030Y0102157D01*
X0157878Y0101127D01*
X0157700Y0100102D01*
X0157497Y0099081D01*
X0157269Y0098066D01*
X0157016Y0097056D01*
X0156738Y0096053D01*
X0156436Y0095057D01*
X0156110Y0094069D01*
X0155759Y0093089D01*
X0155385Y0092118D01*
X0154986Y0091157D01*
X0154565Y0090206D01*
X0154120Y0089265D01*
X0153652Y0088335D01*
X0153161Y0087417D01*
X0152648Y0086512D01*
X0152113Y0085619D01*
X0151557Y0084740D01*
X0150978Y0083875D01*
X0150379Y0083024D01*
X0149759Y0082188D01*
X0149119Y0081368D01*
X0148459Y0080563D01*
X0147779Y0079775D01*
X0147080Y0079004D01*
X0146363Y0078250D01*
X0145627Y0077515D01*
X0144873Y0076797D01*
X0144102Y0076098D01*
X0143314Y0075418D01*
X0142510Y0074758D01*
X0141689Y0074118D01*
X0140854Y0073498D01*
X0140003Y0072899D01*
X0139137Y0072320D01*
X0138258Y0071764D01*
X0137366Y0071229D01*
X0136460Y0070716D01*
X0135542Y0070225D01*
X0134613Y0069757D01*
X0133672Y0069312D01*
X0132721Y0068890D01*
X0131759Y0068492D01*
X0130788Y0068118D01*
X0129809Y0067767D01*
X0128820Y0067440D01*
X0127825Y0067138D01*
X0126822Y0066861D01*
X0125812Y0066608D01*
X0124797Y0066380D01*
X0123776Y0066177D01*
X0122751Y0065999D01*
X0121721Y0065846D01*
X0120689Y0065719D01*
X0119653Y0065617D01*
X0118615Y0065540D01*
X0117576Y0065489D01*
X0116535Y0065463D01*
X0115495Y0065463D01*
X0114454Y0065489D01*
X0113415Y0065540D01*
X0112377Y0065616D01*
X0111341Y0065718D01*
X0110308Y0065845D01*
X0109279Y0065998D01*
X0108254Y0066176D01*
X0107233Y0066379D01*
X0106218Y0066607D01*
X0105208Y0066860D01*
X0104205Y0067137D01*
X0103209Y0067439D01*
X0102221Y0067766D01*
X0101241Y0068116D01*
X0100270Y0068491D01*
X0099309Y0068889D01*
X0098357Y0069311D01*
X0097417Y0069755D01*
X0096487Y0070223D01*
X0095569Y0070714D01*
X0094664Y0071227D01*
X0093771Y0071762D01*
X0092892Y0072318D01*
X0092026Y0072896D01*
X0091176Y0073496D01*
X0090340Y0074115D01*
X0089519Y0074756D01*
X0088715Y0075416D01*
X0087927Y0076096D01*
X0087156Y0076794D01*
X0086402Y0077512D01*
X0085666Y0078248D01*
X0084948Y0079001D01*
X0084249Y0079772D01*
X0083570Y0080560D01*
X0082909Y0081365D01*
X0082269Y0082185D01*
X0081649Y0083021D01*
X0081050Y0083872D01*
X0080471Y0084737D01*
X0079915Y0085616D01*
X0079380Y0086509D01*
X0078867Y0087414D01*
X0078376Y0088332D01*
X0077908Y0089261D01*
X0077463Y0090202D01*
X0077041Y0091153D01*
X0076643Y0092115D01*
M02*
