G75*
%MOIN*%
%OFA0B0*%
%FSLAX25Y25*%
%IPPOS*%
%LPD*%
%AMOC8*
5,1,8,0,0,1.08239X$1,22.5*
%
%ADD10C,0.00000*%
%ADD11R,0.04724X0.03150*%
%ADD12R,0.02362X0.08661*%
%ADD13C,0.07400*%
%ADD14R,0.03150X0.04724*%
%ADD15R,0.06299X0.05512*%
%ADD16OC8,0.07400*%
%ADD17R,0.02400X0.08700*%
%ADD18C,0.01600*%
%ADD19C,0.06496*%
%ADD20C,0.01000*%
%ADD21C,0.02400*%
D10*
X0011472Y0012692D02*
X0011472Y0112794D01*
X0210131Y0112794D01*
X0210131Y0012692D01*
X0011472Y0012692D01*
D11*
X0068704Y0046617D03*
X0068704Y0053703D03*
X0068710Y0060772D03*
X0068710Y0067858D03*
X0092555Y0067437D03*
X0092555Y0062524D03*
X0092555Y0055437D03*
X0092555Y0074524D03*
X0069518Y0083260D03*
X0069518Y0090346D03*
X0138555Y0074924D03*
X0138555Y0067837D03*
X0138555Y0062524D03*
X0138555Y0055437D03*
X0178075Y0057406D03*
X0187327Y0057406D03*
X0187327Y0050319D03*
X0178075Y0050319D03*
X0180240Y0033587D03*
X0180240Y0026500D03*
X0180437Y0069020D03*
X0180437Y0076106D03*
X0177484Y0093429D03*
X0186343Y0093626D03*
X0186343Y0100713D03*
X0177484Y0100516D03*
D12*
X0130555Y0079217D03*
X0125555Y0079217D03*
X0120555Y0079217D03*
X0115555Y0079217D03*
X0110555Y0079217D03*
X0105555Y0079217D03*
X0100555Y0079217D03*
X0100555Y0058744D03*
X0105555Y0058744D03*
X0110555Y0058744D03*
X0115555Y0058744D03*
X0120555Y0058744D03*
X0125555Y0058744D03*
X0130555Y0058744D03*
D13*
X0124046Y0039254D03*
X0106833Y0039361D03*
X0057939Y0047212D03*
X0057939Y0057212D03*
X0057939Y0067212D03*
X0058501Y0085928D03*
X0053501Y0093428D03*
X0048501Y0085928D03*
X0025706Y0093194D03*
X0095925Y0089980D03*
X0143513Y0082724D03*
X0199335Y0088831D03*
X0199335Y0100231D03*
X0199531Y0057121D03*
X0199531Y0045721D03*
D14*
X0185555Y0041067D03*
X0178469Y0041067D03*
X0167248Y0057209D03*
X0160161Y0057209D03*
X0139098Y0047980D03*
X0132012Y0047980D03*
X0099598Y0047980D03*
X0092512Y0047980D03*
X0114882Y0089954D03*
X0121969Y0089954D03*
X0129039Y0089854D03*
X0136125Y0089854D03*
X0160161Y0100516D03*
X0167248Y0100516D03*
X0178665Y0085161D03*
X0185752Y0085161D03*
D15*
X0080558Y0067557D03*
X0080558Y0056534D03*
D16*
X0035234Y0057187D03*
X0025234Y0057187D03*
X0025234Y0067187D03*
X0035234Y0067187D03*
X0035234Y0077187D03*
X0025234Y0077187D03*
X0025234Y0047187D03*
X0035234Y0047187D03*
D17*
X0155417Y0047233D03*
X0160417Y0047233D03*
X0165417Y0047233D03*
X0170417Y0047233D03*
X0170417Y0026633D03*
X0165417Y0026633D03*
X0160417Y0026633D03*
X0155417Y0026633D03*
X0155417Y0068956D03*
X0160417Y0068956D03*
X0165417Y0068956D03*
X0170417Y0068956D03*
X0170417Y0089556D03*
X0165417Y0089556D03*
X0160417Y0089556D03*
X0155417Y0089556D03*
D18*
X0151633Y0089556D01*
X0147169Y0094020D01*
X0151743Y0095646D02*
X0158317Y0095646D01*
X0158317Y0095269D02*
X0157917Y0094869D01*
X0157280Y0095506D01*
X0153555Y0095506D01*
X0152617Y0094569D01*
X0152617Y0091966D01*
X0151874Y0092709D01*
X0152017Y0093055D01*
X0152017Y0094984D01*
X0151279Y0096766D01*
X0149915Y0098130D01*
X0148134Y0098868D01*
X0146205Y0098868D01*
X0144423Y0098130D01*
X0143059Y0096766D01*
X0142321Y0094984D01*
X0142321Y0093055D01*
X0143059Y0091273D01*
X0144423Y0089910D01*
X0146205Y0089172D01*
X0148134Y0089172D01*
X0148480Y0089315D01*
X0150274Y0087521D01*
X0151156Y0087156D01*
X0152617Y0087156D01*
X0152617Y0084543D01*
X0153555Y0083606D01*
X0157280Y0083606D01*
X0157917Y0084243D01*
X0158317Y0083843D01*
X0158317Y0083728D01*
X0157835Y0083246D01*
X0157189Y0083513D01*
X0155260Y0083513D01*
X0153478Y0082775D01*
X0152114Y0081412D01*
X0151376Y0079630D01*
X0151376Y0077701D01*
X0152114Y0075919D01*
X0153223Y0074810D01*
X0153112Y0074746D01*
X0152777Y0074411D01*
X0152540Y0074001D01*
X0152417Y0073543D01*
X0152417Y0068956D01*
X0155417Y0068956D01*
X0155417Y0068956D01*
X0152417Y0068956D01*
X0152417Y0064369D01*
X0152540Y0063911D01*
X0152583Y0063836D01*
X0144725Y0063836D01*
X0142517Y0061629D01*
X0142517Y0064761D01*
X0142098Y0065180D01*
X0142517Y0065599D01*
X0142517Y0070075D01*
X0141580Y0071012D01*
X0135530Y0071012D01*
X0134593Y0070075D01*
X0134593Y0069937D01*
X0116741Y0069937D01*
X0112896Y0073783D01*
X0113055Y0073942D01*
X0113711Y0073286D01*
X0117399Y0073286D01*
X0118055Y0073942D01*
X0118711Y0073286D01*
X0122399Y0073286D01*
X0123055Y0073942D01*
X0123711Y0073286D01*
X0127399Y0073286D01*
X0128055Y0073942D01*
X0128711Y0073286D01*
X0132399Y0073286D01*
X0133336Y0074223D01*
X0133336Y0076748D01*
X0134593Y0075492D01*
X0134593Y0072686D01*
X0135530Y0071749D01*
X0141580Y0071749D01*
X0142517Y0072686D01*
X0142517Y0077161D01*
X0142111Y0077568D01*
X0142458Y0077424D01*
X0144567Y0077424D01*
X0146515Y0078230D01*
X0148006Y0079721D01*
X0148813Y0081669D01*
X0148813Y0083778D01*
X0148006Y0085726D01*
X0146515Y0087217D01*
X0144567Y0088024D01*
X0142458Y0088024D01*
X0140510Y0087217D01*
X0139019Y0085726D01*
X0138213Y0083778D01*
X0138213Y0081669D01*
X0138462Y0081067D01*
X0137134Y0079739D01*
X0136297Y0080576D01*
X0135622Y0081251D01*
X0134740Y0081617D01*
X0133336Y0081617D01*
X0133336Y0084210D01*
X0132399Y0085147D01*
X0128711Y0085147D01*
X0128055Y0084491D01*
X0127399Y0085147D01*
X0123711Y0085147D01*
X0123055Y0084491D01*
X0122955Y0084591D01*
X0122955Y0085991D01*
X0124206Y0085991D01*
X0125143Y0086929D01*
X0125143Y0087554D01*
X0125864Y0087554D01*
X0125864Y0086829D01*
X0126801Y0085891D01*
X0131276Y0085891D01*
X0132213Y0086829D01*
X0132213Y0092878D01*
X0131276Y0093816D01*
X0126801Y0093816D01*
X0125864Y0092878D01*
X0125864Y0092354D01*
X0125143Y0092354D01*
X0125143Y0092978D01*
X0124206Y0093916D01*
X0119731Y0093916D01*
X0118794Y0092978D01*
X0118794Y0090173D01*
X0118520Y0089900D01*
X0118155Y0089018D01*
X0118155Y0084591D01*
X0118055Y0084491D01*
X0117955Y0084591D01*
X0117955Y0086827D01*
X0118057Y0086929D01*
X0118057Y0092978D01*
X0117119Y0093916D01*
X0112644Y0093916D01*
X0111707Y0092978D01*
X0111707Y0092380D01*
X0100668Y0092380D01*
X0100418Y0092983D01*
X0098927Y0094473D01*
X0096979Y0095280D01*
X0094871Y0095280D01*
X0092923Y0094473D01*
X0091432Y0092983D01*
X0090625Y0091035D01*
X0090625Y0088926D01*
X0091432Y0086978D01*
X0092923Y0085487D01*
X0094871Y0084680D01*
X0096979Y0084680D01*
X0098927Y0085487D01*
X0100418Y0086978D01*
X0100668Y0087580D01*
X0111707Y0087580D01*
X0111707Y0086929D01*
X0112644Y0085991D01*
X0113155Y0085991D01*
X0113155Y0084591D01*
X0113055Y0084491D01*
X0112399Y0085147D01*
X0108711Y0085147D01*
X0108055Y0084491D01*
X0107399Y0085147D01*
X0103711Y0085147D01*
X0103055Y0084491D01*
X0102399Y0085147D01*
X0098711Y0085147D01*
X0097774Y0084210D01*
X0097774Y0081317D01*
X0096378Y0081317D01*
X0095148Y0080086D01*
X0092760Y0077698D01*
X0092350Y0077698D01*
X0091992Y0078056D01*
X0090762Y0079287D01*
X0040534Y0079287D01*
X0040534Y0079382D01*
X0037429Y0082487D01*
X0033504Y0082487D01*
X0042345Y0091328D01*
X0047437Y0091328D01*
X0047213Y0091293D01*
X0046390Y0091025D01*
X0045618Y0090632D01*
X0044918Y0090123D01*
X0044306Y0089511D01*
X0043797Y0088811D01*
X0043404Y0088040D01*
X0043136Y0087216D01*
X0043001Y0086361D01*
X0043001Y0086113D01*
X0048316Y0086113D01*
X0048316Y0085744D01*
X0043001Y0085744D01*
X0043001Y0085495D01*
X0043136Y0084640D01*
X0043404Y0083817D01*
X0043797Y0083046D01*
X0044306Y0082345D01*
X0044918Y0081733D01*
X0045618Y0081224D01*
X0046390Y0080831D01*
X0047213Y0080564D01*
X0048068Y0080428D01*
X0048317Y0080428D01*
X0048317Y0085744D01*
X0048685Y0085744D01*
X0048685Y0080428D01*
X0048934Y0080428D01*
X0049789Y0080564D01*
X0050612Y0080831D01*
X0051383Y0081224D01*
X0052084Y0081733D01*
X0052696Y0082345D01*
X0053205Y0083046D01*
X0053598Y0083817D01*
X0053616Y0083872D01*
X0054008Y0082926D01*
X0055499Y0081435D01*
X0057447Y0080628D01*
X0059555Y0080628D01*
X0061503Y0081435D01*
X0062994Y0082926D01*
X0063801Y0084874D01*
X0063801Y0086983D01*
X0062994Y0088931D01*
X0061503Y0090421D01*
X0059555Y0091228D01*
X0058326Y0091228D01*
X0058368Y0091328D01*
X0065556Y0091328D01*
X0065556Y0088109D01*
X0066493Y0087172D01*
X0072543Y0087172D01*
X0073480Y0088109D01*
X0073480Y0092584D01*
X0072543Y0093521D01*
X0069313Y0093521D01*
X0067306Y0095528D01*
X0058368Y0095528D01*
X0057994Y0096431D01*
X0056503Y0097921D01*
X0054555Y0098728D01*
X0052447Y0098728D01*
X0050499Y0097921D01*
X0049008Y0096431D01*
X0048634Y0095528D01*
X0040606Y0095528D01*
X0039376Y0094298D01*
X0027497Y0082419D01*
X0027429Y0082487D01*
X0023039Y0082487D01*
X0019934Y0079382D01*
X0019934Y0074991D01*
X0022739Y0072187D01*
X0019934Y0069382D01*
X0019934Y0064991D01*
X0022597Y0062328D01*
X0019734Y0059465D01*
X0019734Y0057387D01*
X0025034Y0057387D01*
X0025034Y0056987D01*
X0019734Y0056987D01*
X0019734Y0054908D01*
X0022597Y0052045D01*
X0019934Y0049382D01*
X0019934Y0044991D01*
X0023039Y0041887D01*
X0026647Y0041887D01*
X0033307Y0035227D01*
X0083701Y0035227D01*
X0090788Y0028140D01*
X0139607Y0028140D01*
X0150236Y0017510D01*
X0165362Y0017510D01*
X0166592Y0018740D01*
X0167773Y0019921D01*
X0167773Y0021176D01*
X0167917Y0021320D01*
X0168555Y0020683D01*
X0172280Y0020683D01*
X0173217Y0021620D01*
X0173217Y0024100D01*
X0176440Y0024100D01*
X0177215Y0023325D01*
X0183265Y0023325D01*
X0184040Y0024100D01*
X0184447Y0024100D01*
X0184447Y0022977D01*
X0185185Y0021195D01*
X0186549Y0019831D01*
X0188331Y0019093D01*
X0190260Y0019093D01*
X0192041Y0019831D01*
X0193405Y0021195D01*
X0194143Y0022977D01*
X0194143Y0024905D01*
X0193405Y0026687D01*
X0192041Y0028051D01*
X0190260Y0028789D01*
X0188331Y0028789D01*
X0187906Y0028613D01*
X0187214Y0028900D01*
X0184040Y0028900D01*
X0183265Y0029675D01*
X0177215Y0029675D01*
X0176440Y0028900D01*
X0173217Y0028900D01*
X0173217Y0031577D01*
X0174325Y0032036D01*
X0175689Y0033399D01*
X0175956Y0034046D01*
X0176278Y0034046D01*
X0176278Y0031349D01*
X0177215Y0030412D01*
X0183265Y0030412D01*
X0184202Y0031349D01*
X0184202Y0035824D01*
X0183265Y0036761D01*
X0180035Y0036761D01*
X0179781Y0037016D01*
X0179692Y0037105D01*
X0180706Y0037105D01*
X0181643Y0038042D01*
X0181643Y0044092D01*
X0180706Y0045029D01*
X0177476Y0045029D01*
X0175561Y0046944D01*
X0178075Y0046944D01*
X0180674Y0046944D01*
X0181132Y0047067D01*
X0181542Y0047304D01*
X0181877Y0047639D01*
X0182114Y0048049D01*
X0182237Y0048507D01*
X0182237Y0050319D01*
X0182237Y0052131D01*
X0182114Y0052588D01*
X0181877Y0052999D01*
X0181542Y0053334D01*
X0181132Y0053571D01*
X0180674Y0053694D01*
X0178075Y0053694D01*
X0178075Y0050319D01*
X0182237Y0050319D01*
X0178075Y0050319D01*
X0178075Y0050319D01*
X0178075Y0050319D01*
X0178075Y0053694D01*
X0175476Y0053694D01*
X0175018Y0053571D01*
X0174607Y0053334D01*
X0174272Y0052999D01*
X0174035Y0052588D01*
X0173913Y0052131D01*
X0173913Y0050319D01*
X0178075Y0050319D01*
X0178075Y0046944D01*
X0178075Y0050319D01*
X0178075Y0050319D01*
X0178075Y0050319D01*
X0173913Y0050319D01*
X0173913Y0048593D01*
X0173217Y0049288D01*
X0173217Y0052246D01*
X0172280Y0053183D01*
X0168555Y0053183D01*
X0167917Y0052546D01*
X0167517Y0052946D01*
X0167517Y0053246D01*
X0169486Y0053246D01*
X0170423Y0054184D01*
X0170423Y0055109D01*
X0174172Y0055109D01*
X0175050Y0054231D01*
X0181100Y0054231D01*
X0182037Y0055168D01*
X0182037Y0055306D01*
X0183365Y0055306D01*
X0183365Y0055168D01*
X0184302Y0054231D01*
X0190352Y0054231D01*
X0191289Y0055168D01*
X0191289Y0055306D01*
X0194547Y0055306D01*
X0195038Y0054119D01*
X0196529Y0052628D01*
X0198477Y0051821D01*
X0200586Y0051821D01*
X0202534Y0052628D01*
X0204025Y0054119D01*
X0204831Y0056067D01*
X0204831Y0058175D01*
X0204025Y0060123D01*
X0202534Y0061614D01*
X0200586Y0062421D01*
X0198477Y0062421D01*
X0196529Y0061614D01*
X0195038Y0060123D01*
X0194782Y0059505D01*
X0191289Y0059505D01*
X0191289Y0059643D01*
X0190352Y0060580D01*
X0184302Y0060580D01*
X0183365Y0059643D01*
X0183365Y0059505D01*
X0182037Y0059505D01*
X0182037Y0059643D01*
X0181100Y0060580D01*
X0175050Y0060580D01*
X0174113Y0059643D01*
X0174113Y0059309D01*
X0170423Y0059309D01*
X0170423Y0060234D01*
X0169486Y0061171D01*
X0166503Y0061171D01*
X0167380Y0062047D01*
X0167380Y0063105D01*
X0167917Y0063643D01*
X0168555Y0063006D01*
X0172280Y0063006D01*
X0173217Y0063943D01*
X0173217Y0066620D01*
X0176637Y0066620D01*
X0177412Y0065845D01*
X0183462Y0065845D01*
X0184237Y0066620D01*
X0184841Y0066620D01*
X0184841Y0065890D01*
X0185579Y0064108D01*
X0186943Y0062744D01*
X0188725Y0062006D01*
X0190653Y0062006D01*
X0192435Y0062744D01*
X0193799Y0064108D01*
X0194537Y0065890D01*
X0194537Y0067819D01*
X0193799Y0069601D01*
X0192435Y0070964D01*
X0190653Y0071702D01*
X0188725Y0071702D01*
X0188022Y0071411D01*
X0188001Y0071420D01*
X0184237Y0071420D01*
X0183462Y0072194D01*
X0177412Y0072194D01*
X0176637Y0071420D01*
X0173217Y0071420D01*
X0173217Y0073969D01*
X0172848Y0074338D01*
X0173189Y0074479D01*
X0173662Y0074006D01*
X0176475Y0074006D01*
X0176475Y0073869D01*
X0177412Y0072931D01*
X0183462Y0072931D01*
X0184399Y0073869D01*
X0184399Y0078344D01*
X0183462Y0079281D01*
X0177412Y0079281D01*
X0176475Y0078344D01*
X0176475Y0078206D01*
X0176427Y0078206D01*
X0176427Y0080023D01*
X0175689Y0081805D01*
X0174325Y0083169D01*
X0172570Y0083896D01*
X0173217Y0084543D01*
X0173217Y0087456D01*
X0173401Y0087456D01*
X0175491Y0085366D01*
X0175491Y0082136D01*
X0176428Y0081199D01*
X0180903Y0081199D01*
X0181840Y0082136D01*
X0181840Y0088186D01*
X0180903Y0089124D01*
X0177673Y0089124D01*
X0176742Y0090054D01*
X0177484Y0090054D01*
X0177484Y0093429D01*
X0173322Y0093429D01*
X0173322Y0091656D01*
X0173217Y0091656D01*
X0173217Y0094569D01*
X0172280Y0095506D01*
X0168555Y0095506D01*
X0168537Y0095489D01*
X0168715Y0096554D01*
X0169486Y0096554D01*
X0170423Y0097491D01*
X0170423Y0098416D01*
X0173522Y0098416D01*
X0173522Y0098278D01*
X0174459Y0097341D01*
X0180509Y0097341D01*
X0181446Y0098278D01*
X0181446Y0098503D01*
X0182380Y0098524D01*
X0182380Y0098475D01*
X0183318Y0097538D01*
X0189367Y0097538D01*
X0190294Y0098465D01*
X0194393Y0098313D01*
X0194842Y0097229D01*
X0196332Y0095738D01*
X0198280Y0094931D01*
X0200389Y0094931D01*
X0202337Y0095738D01*
X0203828Y0097229D01*
X0204635Y0099177D01*
X0204635Y0101286D01*
X0203828Y0103234D01*
X0202337Y0104725D01*
X0200389Y0105531D01*
X0198280Y0105531D01*
X0196332Y0104725D01*
X0194842Y0103234D01*
X0194542Y0102510D01*
X0190305Y0102667D01*
X0190305Y0102950D01*
X0189367Y0103887D01*
X0183318Y0103887D01*
X0182380Y0102950D01*
X0182380Y0102725D01*
X0181446Y0102704D01*
X0181446Y0102753D01*
X0180509Y0103691D01*
X0174459Y0103691D01*
X0173522Y0102753D01*
X0173522Y0102616D01*
X0170423Y0102616D01*
X0170423Y0103541D01*
X0169486Y0104478D01*
X0165010Y0104478D01*
X0164073Y0103541D01*
X0164073Y0097491D01*
X0164536Y0097028D01*
X0164282Y0095506D01*
X0163555Y0095506D01*
X0162917Y0094869D01*
X0162517Y0095269D01*
X0162517Y0096672D01*
X0163336Y0097491D01*
X0163336Y0103541D01*
X0162399Y0104478D01*
X0157924Y0104478D01*
X0156987Y0103541D01*
X0156987Y0097491D01*
X0157924Y0096554D01*
X0158317Y0096554D01*
X0158317Y0095269D01*
X0157233Y0097245D02*
X0150800Y0097245D01*
X0148193Y0098843D02*
X0156987Y0098843D01*
X0156987Y0100442D02*
X0016272Y0100442D01*
X0016272Y0102040D02*
X0156987Y0102040D01*
X0157085Y0103639D02*
X0016272Y0103639D01*
X0016272Y0105237D02*
X0197570Y0105237D01*
X0195247Y0103639D02*
X0189616Y0103639D01*
X0183069Y0103639D02*
X0180561Y0103639D01*
X0174408Y0103639D02*
X0170325Y0103639D01*
X0164171Y0103639D02*
X0163238Y0103639D01*
X0163336Y0102040D02*
X0164073Y0102040D01*
X0164073Y0100442D02*
X0163336Y0100442D01*
X0163336Y0098843D02*
X0164073Y0098843D01*
X0164319Y0097245D02*
X0163090Y0097245D01*
X0162517Y0095646D02*
X0164306Y0095646D01*
X0168564Y0095646D02*
X0173431Y0095646D01*
X0173445Y0095699D02*
X0173322Y0095241D01*
X0173322Y0093429D01*
X0177484Y0093429D01*
X0177484Y0093429D01*
X0177484Y0093429D01*
X0177484Y0090054D01*
X0180083Y0090054D01*
X0180541Y0090177D01*
X0180952Y0090414D01*
X0181287Y0090749D01*
X0181524Y0091160D01*
X0181646Y0091617D01*
X0181646Y0093429D01*
X0177484Y0093429D01*
X0177484Y0096804D01*
X0174885Y0096804D01*
X0174427Y0096681D01*
X0174017Y0096444D01*
X0173682Y0096109D01*
X0173445Y0095699D01*
X0173322Y0094048D02*
X0173217Y0094048D01*
X0173217Y0092449D02*
X0173322Y0092449D01*
X0177484Y0092449D02*
X0177484Y0092449D01*
X0177484Y0093429D02*
X0177484Y0093429D01*
X0177484Y0093429D01*
X0177484Y0096804D01*
X0180083Y0096804D01*
X0180541Y0096681D01*
X0180952Y0096444D01*
X0181287Y0096109D01*
X0181524Y0095699D01*
X0181646Y0095241D01*
X0181646Y0093429D01*
X0177484Y0093429D01*
X0177484Y0094048D02*
X0177484Y0094048D01*
X0177484Y0095646D02*
X0177484Y0095646D01*
X0181538Y0095646D02*
X0182236Y0095646D01*
X0182180Y0095438D02*
X0182180Y0093626D01*
X0182180Y0091814D01*
X0182303Y0091356D01*
X0182540Y0090946D01*
X0182875Y0090611D01*
X0183286Y0090374D01*
X0183743Y0090251D01*
X0186342Y0090251D01*
X0186342Y0093626D01*
X0182180Y0093626D01*
X0186342Y0093626D01*
X0186342Y0093626D01*
X0186343Y0093626D01*
X0190505Y0093626D01*
X0190505Y0095438D01*
X0190382Y0095896D01*
X0190145Y0096306D01*
X0189810Y0096641D01*
X0189399Y0096878D01*
X0188942Y0097001D01*
X0186343Y0097001D01*
X0186343Y0093626D01*
X0186343Y0093626D01*
X0190505Y0093626D01*
X0190505Y0091814D01*
X0190382Y0091356D01*
X0190145Y0090946D01*
X0189810Y0090611D01*
X0189399Y0090374D01*
X0188942Y0090251D01*
X0186343Y0090251D01*
X0186343Y0093626D01*
X0186342Y0093626D01*
X0186342Y0097001D01*
X0183743Y0097001D01*
X0183286Y0096878D01*
X0182875Y0096641D01*
X0182540Y0096306D01*
X0182303Y0095896D01*
X0182180Y0095438D01*
X0182180Y0094048D02*
X0181646Y0094048D01*
X0181646Y0092449D02*
X0182180Y0092449D01*
X0182635Y0090851D02*
X0181345Y0090851D01*
X0183072Y0088964D02*
X0183482Y0089201D01*
X0183940Y0089324D01*
X0185752Y0089324D01*
X0187564Y0089324D01*
X0188022Y0089201D01*
X0188432Y0088964D01*
X0188767Y0088629D01*
X0189004Y0088218D01*
X0189127Y0087761D01*
X0189127Y0085161D01*
X0185752Y0085161D01*
X0185752Y0080999D01*
X0187564Y0080999D01*
X0188022Y0081122D01*
X0188432Y0081359D01*
X0188767Y0081694D01*
X0189004Y0082104D01*
X0189127Y0082562D01*
X0189127Y0085161D01*
X0185752Y0085161D01*
X0185752Y0085161D01*
X0185752Y0080999D01*
X0183940Y0080999D01*
X0183482Y0081122D01*
X0183072Y0081359D01*
X0182737Y0081694D01*
X0182500Y0082104D01*
X0182377Y0082562D01*
X0182377Y0085161D01*
X0185752Y0085161D01*
X0185752Y0085161D01*
X0185752Y0085161D01*
X0182377Y0085161D01*
X0182377Y0087761D01*
X0182500Y0088218D01*
X0182737Y0088629D01*
X0183072Y0088964D01*
X0183674Y0089252D02*
X0177544Y0089252D01*
X0177484Y0090851D02*
X0177484Y0090851D01*
X0181840Y0087654D02*
X0182377Y0087654D01*
X0182377Y0086055D02*
X0181840Y0086055D01*
X0181840Y0084457D02*
X0182377Y0084457D01*
X0182377Y0082858D02*
X0181840Y0082858D01*
X0180963Y0081260D02*
X0183244Y0081260D01*
X0185752Y0081260D02*
X0185752Y0081260D01*
X0185752Y0082858D02*
X0185752Y0082858D01*
X0185752Y0084457D02*
X0185752Y0084457D01*
X0185752Y0085162D02*
X0185752Y0089324D01*
X0185752Y0085162D01*
X0185752Y0085162D01*
X0185752Y0086055D02*
X0185752Y0086055D01*
X0185752Y0087654D02*
X0185752Y0087654D01*
X0185752Y0089252D02*
X0185752Y0089252D01*
X0186342Y0090851D02*
X0186343Y0090851D01*
X0186342Y0092449D02*
X0186343Y0092449D01*
X0186342Y0094048D02*
X0186343Y0094048D01*
X0186342Y0095646D02*
X0186343Y0095646D01*
X0190449Y0095646D02*
X0196555Y0095646D01*
X0197223Y0093929D02*
X0196452Y0093536D01*
X0195752Y0093027D01*
X0195139Y0092414D01*
X0194631Y0091714D01*
X0194238Y0090943D01*
X0193970Y0090119D01*
X0193835Y0089264D01*
X0193835Y0089016D01*
X0199150Y0089016D01*
X0199150Y0088647D01*
X0193835Y0088647D01*
X0193835Y0088399D01*
X0193970Y0087544D01*
X0194238Y0086720D01*
X0194631Y0085949D01*
X0195139Y0085248D01*
X0195752Y0084636D01*
X0196452Y0084127D01*
X0197223Y0083734D01*
X0198047Y0083467D01*
X0198902Y0083331D01*
X0199150Y0083331D01*
X0199150Y0088647D01*
X0199519Y0088647D01*
X0199519Y0083331D01*
X0199768Y0083331D01*
X0200623Y0083467D01*
X0201446Y0083734D01*
X0202217Y0084127D01*
X0202918Y0084636D01*
X0203530Y0085248D01*
X0204039Y0085949D01*
X0204432Y0086720D01*
X0204699Y0087544D01*
X0204835Y0088399D01*
X0204835Y0088647D01*
X0199519Y0088647D01*
X0199519Y0089016D01*
X0199150Y0089016D01*
X0199150Y0094331D01*
X0198902Y0094331D01*
X0198047Y0094196D01*
X0197223Y0093929D01*
X0197590Y0094048D02*
X0190505Y0094048D01*
X0190505Y0092449D02*
X0195174Y0092449D01*
X0194208Y0090851D02*
X0190050Y0090851D01*
X0187830Y0089252D02*
X0193835Y0089252D01*
X0193953Y0087654D02*
X0189127Y0087654D01*
X0189127Y0086055D02*
X0194576Y0086055D01*
X0195999Y0084457D02*
X0189127Y0084457D01*
X0189127Y0082858D02*
X0205331Y0082858D01*
X0205331Y0081260D02*
X0188260Y0081260D01*
X0184399Y0078063D02*
X0205331Y0078063D01*
X0205331Y0079661D02*
X0176427Y0079661D01*
X0176367Y0081260D02*
X0175915Y0081260D01*
X0175491Y0082858D02*
X0174636Y0082858D01*
X0175491Y0084457D02*
X0173131Y0084457D01*
X0173217Y0086055D02*
X0174802Y0086055D01*
X0170177Y0097245D02*
X0194835Y0097245D01*
X0199150Y0094048D02*
X0199519Y0094048D01*
X0199519Y0094331D02*
X0199768Y0094331D01*
X0200623Y0094196D01*
X0201446Y0093929D01*
X0202217Y0093536D01*
X0202918Y0093027D01*
X0203530Y0092414D01*
X0204039Y0091714D01*
X0204432Y0090943D01*
X0204699Y0090119D01*
X0204835Y0089264D01*
X0204835Y0089016D01*
X0199519Y0089016D01*
X0199519Y0094331D01*
X0201079Y0094048D02*
X0205331Y0094048D01*
X0205331Y0095646D02*
X0202114Y0095646D01*
X0203834Y0097245D02*
X0205331Y0097245D01*
X0205331Y0098843D02*
X0204496Y0098843D01*
X0204635Y0100442D02*
X0205331Y0100442D01*
X0205331Y0102040D02*
X0204322Y0102040D01*
X0203423Y0103639D02*
X0205331Y0103639D01*
X0205331Y0105237D02*
X0201099Y0105237D01*
X0205331Y0106836D02*
X0016272Y0106836D01*
X0016272Y0107994D02*
X0205331Y0107994D01*
X0205331Y0017492D01*
X0016272Y0017492D01*
X0016272Y0107994D01*
X0016272Y0098843D02*
X0146146Y0098843D01*
X0143538Y0097245D02*
X0057180Y0097245D01*
X0058319Y0095646D02*
X0142596Y0095646D01*
X0142321Y0094048D02*
X0099353Y0094048D01*
X0100639Y0092449D02*
X0111707Y0092449D01*
X0114855Y0089980D02*
X0095925Y0089980D01*
X0091152Y0087654D02*
X0073025Y0087654D01*
X0072575Y0086512D02*
X0072117Y0086635D01*
X0069518Y0086635D01*
X0066919Y0086635D01*
X0066461Y0086512D01*
X0066051Y0086275D01*
X0065716Y0085940D01*
X0065479Y0085529D01*
X0065356Y0085072D01*
X0065356Y0083260D01*
X0069518Y0083260D01*
X0069518Y0086635D01*
X0069518Y0083260D01*
X0069518Y0083260D01*
X0069518Y0083260D01*
X0065356Y0083260D01*
X0065356Y0081448D01*
X0065479Y0080990D01*
X0065716Y0080580D01*
X0066051Y0080245D01*
X0066461Y0080008D01*
X0066919Y0079885D01*
X0069518Y0079885D01*
X0069518Y0083260D01*
X0073680Y0083260D01*
X0073680Y0085072D01*
X0073558Y0085529D01*
X0073321Y0085940D01*
X0072986Y0086275D01*
X0072575Y0086512D01*
X0073205Y0086055D02*
X0092355Y0086055D01*
X0090625Y0089252D02*
X0073480Y0089252D01*
X0073480Y0090851D02*
X0090625Y0090851D01*
X0091211Y0092449D02*
X0073480Y0092449D01*
X0068787Y0094048D02*
X0092497Y0094048D01*
X0099495Y0086055D02*
X0112581Y0086055D01*
X0115555Y0089280D02*
X0114882Y0089954D01*
X0114855Y0089980D01*
X0115555Y0089280D02*
X0115555Y0079217D01*
X0120555Y0079217D02*
X0120555Y0088540D01*
X0121969Y0089954D01*
X0128939Y0089954D01*
X0129039Y0089854D01*
X0132213Y0089252D02*
X0132750Y0089252D01*
X0132750Y0089853D02*
X0132750Y0087254D01*
X0132873Y0086797D01*
X0133110Y0086386D01*
X0133445Y0086051D01*
X0133856Y0085814D01*
X0134313Y0085691D01*
X0136125Y0085691D01*
X0136125Y0089853D01*
X0136125Y0089853D01*
X0132750Y0089853D01*
X0132750Y0089854D02*
X0136125Y0089854D01*
X0136125Y0094016D01*
X0134313Y0094016D01*
X0133856Y0093893D01*
X0133445Y0093656D01*
X0133110Y0093321D01*
X0132873Y0092911D01*
X0132750Y0092453D01*
X0132750Y0089854D01*
X0132750Y0090851D02*
X0132213Y0090851D01*
X0132213Y0092449D02*
X0132750Y0092449D01*
X0136125Y0092449D02*
X0136125Y0092449D01*
X0136125Y0094016D02*
X0136125Y0089854D01*
X0136125Y0089854D01*
X0136125Y0089853D01*
X0136125Y0085691D01*
X0137937Y0085691D01*
X0138395Y0085814D01*
X0138805Y0086051D01*
X0139140Y0086386D01*
X0139377Y0086797D01*
X0139500Y0087254D01*
X0139500Y0089853D01*
X0136125Y0089853D01*
X0136125Y0089854D01*
X0139500Y0089854D01*
X0139500Y0092453D01*
X0139377Y0092911D01*
X0139140Y0093321D01*
X0138805Y0093656D01*
X0138395Y0093893D01*
X0137937Y0094016D01*
X0136125Y0094016D01*
X0136125Y0090851D02*
X0136125Y0090851D01*
X0136125Y0089252D02*
X0136125Y0089252D01*
X0136125Y0087654D02*
X0136125Y0087654D01*
X0136125Y0086055D02*
X0136125Y0086055D01*
X0133441Y0086055D02*
X0131440Y0086055D01*
X0132213Y0087654D02*
X0132750Y0087654D01*
X0133090Y0084457D02*
X0138494Y0084457D01*
X0138213Y0082858D02*
X0133336Y0082858D01*
X0135601Y0081260D02*
X0138382Y0081260D01*
X0136297Y0080576D02*
X0136297Y0080576D01*
X0134262Y0079217D02*
X0130555Y0079217D01*
X0125555Y0079217D01*
X0133336Y0076464D02*
X0133621Y0076464D01*
X0133336Y0074866D02*
X0134593Y0074866D01*
X0134593Y0073267D02*
X0113411Y0073267D01*
X0115010Y0071669D02*
X0152417Y0071669D01*
X0152417Y0073267D02*
X0142517Y0073267D01*
X0142517Y0074866D02*
X0153168Y0074866D01*
X0151889Y0076464D02*
X0142517Y0076464D01*
X0138555Y0077766D02*
X0138555Y0074924D01*
X0134262Y0079217D01*
X0138555Y0077766D02*
X0143513Y0082724D01*
X0148813Y0082858D02*
X0153678Y0082858D01*
X0152704Y0084457D02*
X0148531Y0084457D01*
X0147676Y0086055D02*
X0152617Y0086055D01*
X0150141Y0087654D02*
X0145460Y0087654D01*
X0146011Y0089252D02*
X0139500Y0089252D01*
X0139500Y0087654D02*
X0141565Y0087654D01*
X0139349Y0086055D02*
X0138809Y0086055D01*
X0139500Y0090851D02*
X0143482Y0090851D01*
X0142572Y0092449D02*
X0139500Y0092449D01*
X0148328Y0089252D02*
X0148543Y0089252D01*
X0152134Y0092449D02*
X0152617Y0092449D01*
X0152617Y0094048D02*
X0152017Y0094048D01*
X0152052Y0081260D02*
X0148643Y0081260D01*
X0147945Y0079661D02*
X0151389Y0079661D01*
X0151376Y0078063D02*
X0146109Y0078063D01*
X0142517Y0070070D02*
X0152417Y0070070D01*
X0152417Y0068472D02*
X0142517Y0068472D01*
X0142517Y0066873D02*
X0152417Y0066873D01*
X0152417Y0065274D02*
X0142192Y0065274D01*
X0142517Y0063676D02*
X0144564Y0063676D01*
X0142966Y0062077D02*
X0142517Y0062077D01*
X0140739Y0059349D02*
X0135530Y0059349D01*
X0134593Y0060286D01*
X0134593Y0064761D01*
X0135012Y0065180D01*
X0134593Y0065599D01*
X0134593Y0065737D01*
X0115002Y0065737D01*
X0113772Y0066967D01*
X0108455Y0072284D01*
X0108455Y0073542D01*
X0108055Y0073942D01*
X0107537Y0073424D01*
X0107537Y0071890D01*
X0102214Y0066567D01*
X0100984Y0065337D01*
X0096517Y0065337D01*
X0096517Y0065199D01*
X0096298Y0064980D01*
X0096517Y0064761D01*
X0096517Y0060286D01*
X0095580Y0059349D01*
X0089530Y0059349D01*
X0088593Y0060286D01*
X0088593Y0064761D01*
X0088812Y0064980D01*
X0088593Y0065199D01*
X0088593Y0069675D01*
X0089530Y0070612D01*
X0095580Y0070612D01*
X0096517Y0069675D01*
X0096517Y0069537D01*
X0099244Y0069537D01*
X0103337Y0073630D01*
X0103337Y0073660D01*
X0103055Y0073942D01*
X0102399Y0073286D01*
X0098711Y0073286D01*
X0097774Y0074223D01*
X0097774Y0076773D01*
X0096517Y0075516D01*
X0096517Y0072286D01*
X0095580Y0071349D01*
X0089530Y0071349D01*
X0088593Y0072286D01*
X0088593Y0075087D01*
X0040534Y0075087D01*
X0040534Y0074991D01*
X0037729Y0072187D01*
X0040329Y0069587D01*
X0053186Y0069587D01*
X0053445Y0070214D01*
X0054936Y0071705D01*
X0056884Y0072512D01*
X0058993Y0072512D01*
X0060941Y0071705D01*
X0062387Y0070258D01*
X0064910Y0070258D01*
X0065685Y0071033D01*
X0071735Y0071033D01*
X0072672Y0070096D01*
X0072672Y0069957D01*
X0075809Y0069957D01*
X0075809Y0070976D01*
X0076746Y0071913D01*
X0084371Y0071913D01*
X0085308Y0070976D01*
X0085308Y0064139D01*
X0084371Y0063202D01*
X0076746Y0063202D01*
X0075809Y0064139D01*
X0075809Y0065157D01*
X0072209Y0065157D01*
X0071735Y0064683D01*
X0065685Y0064683D01*
X0064910Y0065458D01*
X0062949Y0065458D01*
X0062432Y0064210D01*
X0060941Y0062719D01*
X0059995Y0062327D01*
X0060050Y0062309D01*
X0060821Y0061916D01*
X0061522Y0061407D01*
X0062134Y0060795D01*
X0062643Y0060094D01*
X0063036Y0059323D01*
X0063303Y0058500D01*
X0063439Y0057645D01*
X0063439Y0057412D01*
X0058139Y0057412D01*
X0058139Y0057012D01*
X0063439Y0057012D01*
X0063439Y0056779D01*
X0063303Y0055924D01*
X0063036Y0055101D01*
X0062643Y0054329D01*
X0062134Y0053629D01*
X0061522Y0053017D01*
X0060821Y0052508D01*
X0060050Y0052115D01*
X0059995Y0052097D01*
X0060941Y0051705D01*
X0062432Y0050214D01*
X0063052Y0048717D01*
X0064742Y0048717D01*
X0064742Y0048854D01*
X0065679Y0049791D01*
X0071729Y0049791D01*
X0072666Y0048854D01*
X0072666Y0044379D01*
X0071729Y0043442D01*
X0065679Y0043442D01*
X0064742Y0044379D01*
X0064742Y0044517D01*
X0062559Y0044517D01*
X0062432Y0044210D01*
X0060941Y0042719D01*
X0059647Y0042183D01*
X0088984Y0042183D01*
X0090214Y0040953D01*
X0096071Y0035096D01*
X0103602Y0035096D01*
X0102340Y0036358D01*
X0101533Y0038306D01*
X0101533Y0040415D01*
X0102340Y0042363D01*
X0103831Y0043854D01*
X0105779Y0044661D01*
X0107887Y0044661D01*
X0108455Y0044425D01*
X0108455Y0053070D01*
X0108055Y0053470D01*
X0107399Y0052813D01*
X0103711Y0052813D01*
X0103055Y0053470D01*
X0102399Y0052813D01*
X0101433Y0052813D01*
X0101112Y0052680D01*
X0095998Y0052680D01*
X0095580Y0052262D01*
X0094612Y0052262D01*
X0094612Y0051943D01*
X0094749Y0051943D01*
X0095687Y0051005D01*
X0095687Y0044955D01*
X0094749Y0044018D01*
X0090274Y0044018D01*
X0089337Y0044955D01*
X0089337Y0051005D01*
X0090274Y0051943D01*
X0090412Y0051943D01*
X0090412Y0052262D01*
X0089530Y0052262D01*
X0088593Y0053199D01*
X0088593Y0057675D01*
X0089530Y0058612D01*
X0095580Y0058612D01*
X0095912Y0058280D01*
X0097755Y0058280D01*
X0097755Y0059301D01*
X0097774Y0059347D01*
X0097774Y0063738D01*
X0098711Y0064675D01*
X0102399Y0064675D01*
X0103055Y0064019D01*
X0103711Y0064675D01*
X0107399Y0064675D01*
X0108055Y0064019D01*
X0108711Y0064675D01*
X0112399Y0064675D01*
X0112919Y0064155D01*
X0112934Y0064180D01*
X0113269Y0064515D01*
X0113679Y0064752D01*
X0114137Y0064875D01*
X0115555Y0064875D01*
X0115555Y0058744D01*
X0115555Y0058744D01*
X0115555Y0052613D01*
X0114137Y0052613D01*
X0113679Y0052736D01*
X0113269Y0052973D01*
X0112934Y0053308D01*
X0112919Y0053333D01*
X0112655Y0053070D01*
X0112655Y0042213D01*
X0111759Y0041317D01*
X0112133Y0040415D01*
X0112133Y0038306D01*
X0111326Y0036358D01*
X0110064Y0035096D01*
X0120709Y0035096D01*
X0119553Y0036252D01*
X0118746Y0038200D01*
X0118746Y0040309D01*
X0119120Y0041211D01*
X0118403Y0041928D01*
X0118403Y0053122D01*
X0118191Y0053333D01*
X0118177Y0053308D01*
X0117841Y0052973D01*
X0117431Y0052736D01*
X0116973Y0052613D01*
X0115555Y0052613D01*
X0115555Y0058744D01*
X0115555Y0058744D01*
X0115555Y0064875D01*
X0116973Y0064875D01*
X0117431Y0064752D01*
X0117841Y0064515D01*
X0118177Y0064180D01*
X0118191Y0064155D01*
X0118711Y0064675D01*
X0122399Y0064675D01*
X0123055Y0064019D01*
X0123711Y0064675D01*
X0127399Y0064675D01*
X0128055Y0064019D01*
X0128711Y0064675D01*
X0132399Y0064675D01*
X0133336Y0063738D01*
X0133336Y0058933D01*
X0134594Y0057675D01*
X0135530Y0058612D01*
X0140739Y0058612D01*
X0140739Y0059349D01*
X0140739Y0058880D02*
X0133389Y0058880D01*
X0133336Y0060479D02*
X0134593Y0060479D01*
X0134593Y0062077D02*
X0133336Y0062077D01*
X0133336Y0063676D02*
X0134593Y0063676D01*
X0134918Y0065274D02*
X0096517Y0065274D01*
X0096517Y0063676D02*
X0097774Y0063676D01*
X0097774Y0062077D02*
X0096517Y0062077D01*
X0096517Y0060479D02*
X0097774Y0060479D01*
X0097755Y0058880D02*
X0085508Y0058880D01*
X0085508Y0059527D02*
X0085385Y0059985D01*
X0085148Y0060395D01*
X0084813Y0060730D01*
X0084403Y0060967D01*
X0083945Y0061090D01*
X0081136Y0061090D01*
X0081136Y0057112D01*
X0079980Y0057112D01*
X0079980Y0055956D01*
X0075609Y0055956D01*
X0075609Y0053541D01*
X0075731Y0053083D01*
X0075968Y0052673D01*
X0076303Y0052338D01*
X0076714Y0052101D01*
X0077172Y0051978D01*
X0079980Y0051978D01*
X0079980Y0055956D01*
X0081136Y0055956D01*
X0081136Y0051978D01*
X0083945Y0051978D01*
X0084403Y0052101D01*
X0084813Y0052338D01*
X0085148Y0052673D01*
X0085385Y0053083D01*
X0085508Y0053541D01*
X0085508Y0055956D01*
X0081136Y0055956D01*
X0081136Y0057112D01*
X0085508Y0057112D01*
X0085508Y0059527D01*
X0085064Y0060479D02*
X0088593Y0060479D01*
X0088593Y0062077D02*
X0072872Y0062077D01*
X0072872Y0062583D02*
X0072750Y0063041D01*
X0072513Y0063452D01*
X0072178Y0063787D01*
X0071767Y0064024D01*
X0071309Y0064146D01*
X0068710Y0064146D01*
X0066111Y0064146D01*
X0065653Y0064024D01*
X0065243Y0063787D01*
X0064908Y0063452D01*
X0064671Y0063041D01*
X0064548Y0062583D01*
X0064548Y0060772D01*
X0068710Y0060772D01*
X0068710Y0064146D01*
X0068710Y0060772D01*
X0068710Y0060772D01*
X0068710Y0060772D01*
X0064548Y0060772D01*
X0064548Y0058960D01*
X0064671Y0058502D01*
X0064908Y0058092D01*
X0065243Y0057756D01*
X0065653Y0057520D01*
X0066111Y0057397D01*
X0068710Y0057397D01*
X0068710Y0060772D01*
X0072872Y0060772D01*
X0072872Y0062583D01*
X0072288Y0063676D02*
X0076272Y0063676D01*
X0077172Y0061090D02*
X0076714Y0060967D01*
X0076303Y0060730D01*
X0075968Y0060395D01*
X0075731Y0059985D01*
X0075609Y0059527D01*
X0075609Y0057112D01*
X0079980Y0057112D01*
X0079980Y0061090D01*
X0077172Y0061090D01*
X0076052Y0060479D02*
X0072872Y0060479D01*
X0072872Y0060772D02*
X0072872Y0058960D01*
X0072750Y0058502D01*
X0072513Y0058092D01*
X0072178Y0057756D01*
X0071767Y0057520D01*
X0071309Y0057397D01*
X0068710Y0057397D01*
X0068710Y0060772D01*
X0068710Y0060772D01*
X0068710Y0060772D01*
X0072872Y0060772D01*
X0072851Y0058880D02*
X0075609Y0058880D01*
X0075609Y0057282D02*
X0058139Y0057282D01*
X0057738Y0057282D02*
X0050838Y0057282D01*
X0052439Y0057412D02*
X0057738Y0057412D01*
X0057738Y0057012D01*
X0052439Y0057012D01*
X0052439Y0056779D01*
X0052574Y0055924D01*
X0052756Y0055364D01*
X0048834Y0059287D01*
X0047094Y0059287D01*
X0040534Y0059287D01*
X0040534Y0059382D01*
X0037729Y0062187D01*
X0040329Y0064787D01*
X0053206Y0064787D01*
X0053445Y0064210D01*
X0054936Y0062719D01*
X0055883Y0062327D01*
X0055827Y0062309D01*
X0055056Y0061916D01*
X0054356Y0061407D01*
X0053743Y0060795D01*
X0053235Y0060094D01*
X0052842Y0059323D01*
X0052574Y0058500D01*
X0052439Y0057645D01*
X0052439Y0057412D01*
X0052698Y0058880D02*
X0049240Y0058880D01*
X0047094Y0055087D02*
X0053012Y0049168D01*
X0052639Y0048266D01*
X0052639Y0046158D01*
X0053445Y0044210D01*
X0054936Y0042719D01*
X0056230Y0042183D01*
X0039378Y0042183D01*
X0038551Y0043009D01*
X0040534Y0044991D01*
X0040534Y0049382D01*
X0037729Y0052187D01*
X0040534Y0054991D01*
X0040534Y0055087D01*
X0047094Y0055087D01*
X0048096Y0054085D02*
X0039627Y0054085D01*
X0038029Y0052486D02*
X0049694Y0052486D01*
X0051293Y0050888D02*
X0039028Y0050888D01*
X0040534Y0049289D02*
X0052891Y0049289D01*
X0052639Y0047691D02*
X0040534Y0047691D01*
X0040534Y0046092D02*
X0052666Y0046092D01*
X0053328Y0044494D02*
X0040036Y0044494D01*
X0038665Y0042895D02*
X0054760Y0042895D01*
X0061117Y0042895D02*
X0102872Y0042895D01*
X0101836Y0044018D02*
X0102773Y0044955D01*
X0102773Y0051005D01*
X0101836Y0051943D01*
X0097361Y0051943D01*
X0096424Y0051005D01*
X0096424Y0044955D01*
X0097361Y0044018D01*
X0101836Y0044018D01*
X0102312Y0044494D02*
X0105376Y0044494D01*
X0108290Y0044494D02*
X0108455Y0044494D01*
X0108455Y0046092D02*
X0102773Y0046092D01*
X0102773Y0047691D02*
X0108455Y0047691D01*
X0108455Y0049289D02*
X0102773Y0049289D01*
X0102773Y0050888D02*
X0108455Y0050888D01*
X0108455Y0052486D02*
X0095804Y0052486D01*
X0095687Y0050888D02*
X0096424Y0050888D01*
X0096424Y0049289D02*
X0095687Y0049289D01*
X0095687Y0047691D02*
X0096424Y0047691D01*
X0096424Y0046092D02*
X0095687Y0046092D01*
X0095225Y0044494D02*
X0096885Y0044494D01*
X0101898Y0041297D02*
X0089870Y0041297D01*
X0091468Y0039698D02*
X0101533Y0039698D01*
X0101619Y0038100D02*
X0093067Y0038100D01*
X0094665Y0036501D02*
X0102281Y0036501D01*
X0111385Y0036501D02*
X0119450Y0036501D01*
X0118788Y0038100D02*
X0112047Y0038100D01*
X0112133Y0039698D02*
X0118746Y0039698D01*
X0119034Y0041297D02*
X0111768Y0041297D01*
X0112655Y0042895D02*
X0118403Y0042895D01*
X0118403Y0044494D02*
X0112655Y0044494D01*
X0112655Y0046092D02*
X0118403Y0046092D01*
X0118403Y0047691D02*
X0112655Y0047691D01*
X0112655Y0049289D02*
X0118403Y0049289D01*
X0118403Y0050888D02*
X0112655Y0050888D01*
X0112655Y0052486D02*
X0118403Y0052486D01*
X0115555Y0054085D02*
X0115555Y0054085D01*
X0115555Y0055683D02*
X0115555Y0055683D01*
X0115555Y0057282D02*
X0115555Y0057282D01*
X0115555Y0058880D02*
X0115555Y0058880D01*
X0115555Y0060479D02*
X0115555Y0060479D01*
X0115555Y0062077D02*
X0115555Y0062077D01*
X0115555Y0063676D02*
X0115555Y0063676D01*
X0113866Y0066873D02*
X0102520Y0066873D01*
X0104119Y0068472D02*
X0112267Y0068472D01*
X0110669Y0070070D02*
X0105717Y0070070D01*
X0107316Y0071669D02*
X0109070Y0071669D01*
X0108455Y0073267D02*
X0107537Y0073267D01*
X0102974Y0073267D02*
X0096517Y0073267D01*
X0096517Y0074866D02*
X0097774Y0074866D01*
X0097774Y0076464D02*
X0097465Y0076464D01*
X0094723Y0079661D02*
X0040255Y0079661D01*
X0038656Y0081260D02*
X0045570Y0081260D01*
X0043933Y0082858D02*
X0033875Y0082858D01*
X0035474Y0084457D02*
X0043196Y0084457D01*
X0043278Y0087654D02*
X0038671Y0087654D01*
X0040269Y0089252D02*
X0044117Y0089252D01*
X0046047Y0090851D02*
X0041868Y0090851D01*
X0039125Y0094048D02*
X0031139Y0094048D01*
X0031205Y0093627D02*
X0031070Y0094482D01*
X0030803Y0095306D01*
X0030410Y0096077D01*
X0029901Y0096777D01*
X0029289Y0097390D01*
X0028588Y0097898D01*
X0027817Y0098292D01*
X0026993Y0098559D01*
X0026138Y0098694D01*
X0025906Y0098694D01*
X0025906Y0093395D01*
X0025505Y0093395D01*
X0025505Y0098694D01*
X0025273Y0098694D01*
X0024418Y0098559D01*
X0023594Y0098292D01*
X0022823Y0097898D01*
X0022123Y0097390D01*
X0021510Y0096777D01*
X0021001Y0096077D01*
X0020608Y0095306D01*
X0020341Y0094482D01*
X0020206Y0093627D01*
X0020205Y0093394D01*
X0025505Y0093394D01*
X0025505Y0092994D01*
X0020206Y0092994D01*
X0020206Y0092762D01*
X0020341Y0091907D01*
X0020608Y0091083D01*
X0021001Y0090312D01*
X0021510Y0089611D01*
X0022123Y0088999D01*
X0022823Y0088490D01*
X0023594Y0088097D01*
X0024418Y0087830D01*
X0025273Y0087694D01*
X0025505Y0087694D01*
X0025505Y0092994D01*
X0025906Y0092994D01*
X0025906Y0093394D01*
X0031205Y0093394D01*
X0031205Y0093627D01*
X0031205Y0092994D02*
X0025906Y0092994D01*
X0025906Y0087694D01*
X0026138Y0087694D01*
X0026993Y0087830D01*
X0027817Y0088097D01*
X0028588Y0088490D01*
X0029289Y0088999D01*
X0029901Y0089611D01*
X0030410Y0090312D01*
X0030803Y0091083D01*
X0031070Y0091907D01*
X0031205Y0092762D01*
X0031205Y0092994D01*
X0031156Y0092449D02*
X0037527Y0092449D01*
X0035928Y0090851D02*
X0030684Y0090851D01*
X0029541Y0089252D02*
X0034330Y0089252D01*
X0032731Y0087654D02*
X0016272Y0087654D01*
X0016272Y0089252D02*
X0021870Y0089252D01*
X0020727Y0090851D02*
X0016272Y0090851D01*
X0016272Y0092449D02*
X0020255Y0092449D01*
X0020272Y0094048D02*
X0016272Y0094048D01*
X0016272Y0095646D02*
X0020782Y0095646D01*
X0021978Y0097245D02*
X0016272Y0097245D01*
X0025505Y0097245D02*
X0025906Y0097245D01*
X0025906Y0095646D02*
X0025505Y0095646D01*
X0025505Y0094048D02*
X0025906Y0094048D01*
X0025906Y0092449D02*
X0025505Y0092449D01*
X0025505Y0090851D02*
X0025906Y0090851D01*
X0025906Y0089252D02*
X0025505Y0089252D01*
X0031133Y0086055D02*
X0016272Y0086055D01*
X0016272Y0084457D02*
X0029534Y0084457D01*
X0027936Y0082858D02*
X0016272Y0082858D01*
X0016272Y0081260D02*
X0021812Y0081260D01*
X0020213Y0079661D02*
X0016272Y0079661D01*
X0016272Y0078063D02*
X0019934Y0078063D01*
X0019934Y0076464D02*
X0016272Y0076464D01*
X0016272Y0074866D02*
X0020060Y0074866D01*
X0021658Y0073267D02*
X0016272Y0073267D01*
X0016272Y0071669D02*
X0022220Y0071669D01*
X0020622Y0070070D02*
X0016272Y0070070D01*
X0016272Y0068472D02*
X0019934Y0068472D01*
X0019934Y0066873D02*
X0016272Y0066873D01*
X0016272Y0065274D02*
X0019934Y0065274D01*
X0021249Y0063676D02*
X0016272Y0063676D01*
X0016272Y0062077D02*
X0022347Y0062077D01*
X0020748Y0060479D02*
X0016272Y0060479D01*
X0016272Y0058880D02*
X0019734Y0058880D01*
X0016272Y0057282D02*
X0025034Y0057282D01*
X0020557Y0054085D02*
X0016272Y0054085D01*
X0016272Y0055683D02*
X0019734Y0055683D01*
X0022156Y0052486D02*
X0016272Y0052486D01*
X0016272Y0050888D02*
X0021440Y0050888D01*
X0019934Y0049289D02*
X0016272Y0049289D01*
X0016272Y0047691D02*
X0019934Y0047691D01*
X0019934Y0046092D02*
X0016272Y0046092D01*
X0016272Y0044494D02*
X0020431Y0044494D01*
X0022030Y0042895D02*
X0016272Y0042895D01*
X0016272Y0041297D02*
X0027237Y0041297D01*
X0028836Y0039698D02*
X0016272Y0039698D01*
X0016272Y0038100D02*
X0030434Y0038100D01*
X0032033Y0036501D02*
X0016272Y0036501D01*
X0016272Y0034903D02*
X0084025Y0034903D01*
X0085624Y0033304D02*
X0016272Y0033304D01*
X0016272Y0031706D02*
X0087222Y0031706D01*
X0088821Y0030107D02*
X0016272Y0030107D01*
X0016272Y0028509D02*
X0090419Y0028509D01*
X0089799Y0044494D02*
X0072666Y0044494D01*
X0072666Y0046092D02*
X0089337Y0046092D01*
X0089337Y0047691D02*
X0072666Y0047691D01*
X0072231Y0049289D02*
X0089337Y0049289D01*
X0089337Y0050888D02*
X0072371Y0050888D01*
X0072506Y0051023D02*
X0072743Y0051434D01*
X0072866Y0051891D01*
X0072866Y0053703D01*
X0068704Y0053703D01*
X0068704Y0050328D01*
X0071303Y0050328D01*
X0071761Y0050451D01*
X0072171Y0050688D01*
X0072506Y0051023D01*
X0072866Y0052486D02*
X0076155Y0052486D01*
X0075609Y0054085D02*
X0072866Y0054085D01*
X0072866Y0053703D02*
X0072866Y0055515D01*
X0072743Y0055973D01*
X0072506Y0056383D01*
X0072171Y0056718D01*
X0071761Y0056955D01*
X0071303Y0057078D01*
X0068704Y0057078D01*
X0068704Y0053703D01*
X0068704Y0053703D01*
X0068704Y0053703D01*
X0068704Y0050328D01*
X0066105Y0050328D01*
X0065647Y0050451D01*
X0065237Y0050688D01*
X0064901Y0051023D01*
X0064664Y0051434D01*
X0064542Y0051891D01*
X0064542Y0053703D01*
X0068704Y0053703D01*
X0072866Y0053703D01*
X0072821Y0055683D02*
X0075609Y0055683D01*
X0079980Y0055683D02*
X0081136Y0055683D01*
X0081136Y0054085D02*
X0079980Y0054085D01*
X0079980Y0052486D02*
X0081136Y0052486D01*
X0084962Y0052486D02*
X0089306Y0052486D01*
X0088593Y0054085D02*
X0085508Y0054085D01*
X0085508Y0055683D02*
X0088593Y0055683D01*
X0088593Y0057282D02*
X0085508Y0057282D01*
X0081136Y0057282D02*
X0079980Y0057282D01*
X0079980Y0058880D02*
X0081136Y0058880D01*
X0081136Y0060479D02*
X0079980Y0060479D01*
X0084845Y0063676D02*
X0088593Y0063676D01*
X0088593Y0065274D02*
X0085308Y0065274D01*
X0085308Y0066873D02*
X0088593Y0066873D01*
X0088593Y0068472D02*
X0085308Y0068472D01*
X0085308Y0070070D02*
X0088988Y0070070D01*
X0089210Y0071669D02*
X0084615Y0071669D01*
X0088593Y0073267D02*
X0038810Y0073267D01*
X0038247Y0071669D02*
X0054900Y0071669D01*
X0053386Y0070070D02*
X0039846Y0070070D01*
X0035234Y0067187D02*
X0057939Y0067187D01*
X0057939Y0067212D01*
X0058585Y0067858D01*
X0068710Y0067858D01*
X0069011Y0067557D01*
X0080558Y0067557D01*
X0075809Y0070070D02*
X0072672Y0070070D01*
X0076501Y0071669D02*
X0060977Y0071669D01*
X0062873Y0065274D02*
X0065094Y0065274D01*
X0065132Y0063676D02*
X0061898Y0063676D01*
X0060504Y0062077D02*
X0064548Y0062077D01*
X0064548Y0060479D02*
X0062363Y0060479D01*
X0063179Y0058880D02*
X0064569Y0058880D01*
X0065647Y0056955D02*
X0065237Y0056718D01*
X0064901Y0056383D01*
X0064664Y0055973D01*
X0064542Y0055515D01*
X0064542Y0053703D01*
X0068704Y0053703D01*
X0068704Y0053703D01*
X0068704Y0053703D01*
X0068704Y0057078D01*
X0066105Y0057078D01*
X0065647Y0056955D01*
X0064587Y0055683D02*
X0063225Y0055683D01*
X0062465Y0054085D02*
X0064542Y0054085D01*
X0064542Y0052486D02*
X0060779Y0052486D01*
X0061758Y0050888D02*
X0065037Y0050888D01*
X0065177Y0049289D02*
X0062815Y0049289D01*
X0068704Y0050888D02*
X0068704Y0050888D01*
X0068704Y0052486D02*
X0068704Y0052486D01*
X0068704Y0054085D02*
X0068704Y0054085D01*
X0068704Y0055683D02*
X0068704Y0055683D01*
X0068710Y0058880D02*
X0068710Y0058880D01*
X0068710Y0060479D02*
X0068710Y0060479D01*
X0068710Y0062077D02*
X0068710Y0062077D01*
X0068710Y0063676D02*
X0068710Y0063676D01*
X0055373Y0062077D02*
X0037838Y0062077D01*
X0039219Y0063676D02*
X0053979Y0063676D01*
X0053514Y0060479D02*
X0039437Y0060479D01*
X0052437Y0055683D02*
X0052652Y0055683D01*
X0062549Y0044494D02*
X0064742Y0044494D01*
X0096122Y0070070D02*
X0099777Y0070070D01*
X0101376Y0071669D02*
X0095900Y0071669D01*
X0088593Y0074866D02*
X0040408Y0074866D01*
X0048317Y0081260D02*
X0048685Y0081260D01*
X0048685Y0082858D02*
X0048317Y0082858D01*
X0048317Y0084457D02*
X0048685Y0084457D01*
X0048316Y0086055D02*
X0037072Y0086055D01*
X0030629Y0095646D02*
X0048683Y0095646D01*
X0049822Y0097245D02*
X0029433Y0097245D01*
X0053069Y0082858D02*
X0054076Y0082858D01*
X0055923Y0081260D02*
X0051432Y0081260D01*
X0061079Y0081260D02*
X0065406Y0081260D01*
X0065356Y0082858D02*
X0062926Y0082858D01*
X0063628Y0084457D02*
X0065356Y0084457D01*
X0065831Y0086055D02*
X0063801Y0086055D01*
X0063523Y0087654D02*
X0066011Y0087654D01*
X0065556Y0089252D02*
X0062672Y0089252D01*
X0060467Y0090851D02*
X0065556Y0090851D01*
X0069518Y0086055D02*
X0069518Y0086055D01*
X0069518Y0084457D02*
X0069518Y0084457D01*
X0069518Y0083260D02*
X0069518Y0083260D01*
X0069518Y0083260D01*
X0073680Y0083260D01*
X0073680Y0081448D01*
X0073558Y0080990D01*
X0073321Y0080580D01*
X0072986Y0080245D01*
X0072575Y0080008D01*
X0072117Y0079885D01*
X0069518Y0079885D01*
X0069518Y0083260D01*
X0069518Y0082858D02*
X0069518Y0082858D01*
X0069518Y0081260D02*
X0069518Y0081260D01*
X0073630Y0081260D02*
X0096321Y0081260D01*
X0097774Y0082858D02*
X0073680Y0082858D01*
X0073680Y0084457D02*
X0098021Y0084457D01*
X0093124Y0078063D02*
X0091986Y0078063D01*
X0116608Y0070070D02*
X0134593Y0070070D01*
X0126637Y0086055D02*
X0124270Y0086055D01*
X0118155Y0086055D02*
X0117955Y0086055D01*
X0118057Y0087654D02*
X0118155Y0087654D01*
X0118252Y0089252D02*
X0118057Y0089252D01*
X0118057Y0090851D02*
X0118794Y0090851D01*
X0118794Y0092449D02*
X0118057Y0092449D01*
X0125143Y0092449D02*
X0125864Y0092449D01*
X0170417Y0068956D02*
X0170481Y0069020D01*
X0180437Y0069020D01*
X0187524Y0069020D01*
X0189689Y0066854D01*
X0185096Y0065274D02*
X0173217Y0065274D01*
X0172950Y0063676D02*
X0186011Y0063676D01*
X0188553Y0062077D02*
X0167380Y0062077D01*
X0170177Y0060479D02*
X0174949Y0060479D01*
X0181201Y0060479D02*
X0184200Y0060479D01*
X0190453Y0060479D02*
X0195394Y0060479D01*
X0197647Y0062077D02*
X0190825Y0062077D01*
X0193367Y0063676D02*
X0205331Y0063676D01*
X0205331Y0065274D02*
X0194282Y0065274D01*
X0194537Y0066873D02*
X0205331Y0066873D01*
X0205331Y0068472D02*
X0194267Y0068472D01*
X0193329Y0070070D02*
X0205331Y0070070D01*
X0205331Y0071669D02*
X0190735Y0071669D01*
X0188643Y0071669D02*
X0183988Y0071669D01*
X0183798Y0073267D02*
X0205331Y0073267D01*
X0205331Y0074866D02*
X0184399Y0074866D01*
X0184399Y0076464D02*
X0205331Y0076464D01*
X0205331Y0084457D02*
X0202670Y0084457D01*
X0204093Y0086055D02*
X0205331Y0086055D01*
X0205331Y0087654D02*
X0204717Y0087654D01*
X0204835Y0089252D02*
X0205331Y0089252D01*
X0205331Y0090851D02*
X0204462Y0090851D01*
X0205331Y0092449D02*
X0203495Y0092449D01*
X0199519Y0092449D02*
X0199150Y0092449D01*
X0199150Y0090851D02*
X0199519Y0090851D01*
X0199519Y0089252D02*
X0199150Y0089252D01*
X0199150Y0087654D02*
X0199519Y0087654D01*
X0199519Y0086055D02*
X0199150Y0086055D01*
X0199150Y0084457D02*
X0199519Y0084457D01*
X0177077Y0073267D02*
X0173217Y0073267D01*
X0173217Y0071669D02*
X0176886Y0071669D01*
X0201416Y0062077D02*
X0205331Y0062077D01*
X0205331Y0060479D02*
X0203669Y0060479D01*
X0204539Y0058880D02*
X0205331Y0058880D01*
X0205331Y0057282D02*
X0204831Y0057282D01*
X0204673Y0055683D02*
X0205331Y0055683D01*
X0205331Y0054085D02*
X0203990Y0054085D01*
X0205331Y0052486D02*
X0202192Y0052486D01*
X0201643Y0050818D02*
X0200819Y0051086D01*
X0199964Y0051221D01*
X0199716Y0051221D01*
X0199716Y0045906D01*
X0199347Y0045906D01*
X0199347Y0051221D01*
X0199099Y0051221D01*
X0198244Y0051086D01*
X0197420Y0050818D01*
X0196649Y0050425D01*
X0195948Y0049916D01*
X0195336Y0049304D01*
X0194827Y0048604D01*
X0194434Y0047833D01*
X0194167Y0047009D01*
X0194031Y0046154D01*
X0194031Y0045906D01*
X0199347Y0045906D01*
X0199347Y0045537D01*
X0194031Y0045537D01*
X0194031Y0045288D01*
X0194167Y0044433D01*
X0194434Y0043610D01*
X0194827Y0042839D01*
X0195336Y0042138D01*
X0195948Y0041526D01*
X0196649Y0041017D01*
X0197420Y0040624D01*
X0198244Y0040357D01*
X0199099Y0040221D01*
X0199347Y0040221D01*
X0199347Y0045537D01*
X0199716Y0045537D01*
X0199716Y0045906D01*
X0205031Y0045906D01*
X0205031Y0046154D01*
X0204896Y0047009D01*
X0204629Y0047833D01*
X0204236Y0048604D01*
X0203727Y0049304D01*
X0203114Y0049916D01*
X0202414Y0050425D01*
X0201643Y0050818D01*
X0201429Y0050888D02*
X0205331Y0050888D01*
X0205331Y0049289D02*
X0203737Y0049289D01*
X0204675Y0047691D02*
X0205331Y0047691D01*
X0205331Y0046092D02*
X0205031Y0046092D01*
X0205031Y0045537D02*
X0199716Y0045537D01*
X0199716Y0040221D01*
X0199964Y0040221D01*
X0200819Y0040357D01*
X0201643Y0040624D01*
X0202414Y0041017D01*
X0203114Y0041526D01*
X0203727Y0042138D01*
X0204236Y0042839D01*
X0204629Y0043610D01*
X0204896Y0044433D01*
X0205031Y0045288D01*
X0205031Y0045537D01*
X0204906Y0044494D02*
X0205331Y0044494D01*
X0205331Y0042895D02*
X0204264Y0042895D01*
X0205331Y0041297D02*
X0202799Y0041297D01*
X0205331Y0039698D02*
X0188930Y0039698D01*
X0188930Y0038468D02*
X0188930Y0041067D01*
X0188930Y0043666D01*
X0188807Y0044124D01*
X0188570Y0044534D01*
X0188235Y0044869D01*
X0187825Y0045106D01*
X0187367Y0045229D01*
X0185555Y0045229D01*
X0183743Y0045229D01*
X0183286Y0045106D01*
X0182875Y0044869D01*
X0182540Y0044534D01*
X0182303Y0044124D01*
X0182180Y0043666D01*
X0182180Y0041067D01*
X0185555Y0041067D01*
X0185555Y0041067D01*
X0185555Y0045229D01*
X0185555Y0041067D01*
X0185555Y0041067D01*
X0182180Y0041067D01*
X0182180Y0038468D01*
X0182303Y0038010D01*
X0182540Y0037599D01*
X0182875Y0037264D01*
X0183286Y0037027D01*
X0183743Y0036905D01*
X0185555Y0036905D01*
X0185555Y0041067D01*
X0185555Y0041067D01*
X0188930Y0041067D01*
X0185555Y0041067D01*
X0185555Y0041067D01*
X0185555Y0036905D01*
X0187367Y0036905D01*
X0187825Y0037027D01*
X0188235Y0037264D01*
X0188570Y0037599D01*
X0188807Y0038010D01*
X0188930Y0038468D01*
X0188831Y0038100D02*
X0205331Y0038100D01*
X0205331Y0036501D02*
X0183525Y0036501D01*
X0184202Y0034903D02*
X0205331Y0034903D01*
X0205331Y0033304D02*
X0184202Y0033304D01*
X0184202Y0031706D02*
X0205331Y0031706D01*
X0205331Y0030107D02*
X0173217Y0030107D01*
X0173528Y0031706D02*
X0176278Y0031706D01*
X0176278Y0033304D02*
X0175593Y0033304D01*
X0181643Y0038100D02*
X0182279Y0038100D01*
X0182180Y0039698D02*
X0181643Y0039698D01*
X0181643Y0041297D02*
X0182180Y0041297D01*
X0182180Y0042895D02*
X0181643Y0042895D01*
X0181241Y0044494D02*
X0182517Y0044494D01*
X0185555Y0044494D02*
X0185555Y0044494D01*
X0185555Y0042895D02*
X0185555Y0042895D01*
X0185555Y0041297D02*
X0185555Y0041297D01*
X0185555Y0039698D02*
X0185555Y0039698D01*
X0185555Y0038100D02*
X0185555Y0038100D01*
X0188930Y0041297D02*
X0196264Y0041297D01*
X0194799Y0042895D02*
X0188930Y0042895D01*
X0188594Y0044494D02*
X0194157Y0044494D01*
X0194031Y0046092D02*
X0176413Y0046092D01*
X0178075Y0047691D02*
X0178075Y0047691D01*
X0178075Y0049289D02*
X0178075Y0049289D01*
X0178075Y0050888D02*
X0178075Y0050888D01*
X0178075Y0052486D02*
X0178075Y0052486D01*
X0182142Y0052486D02*
X0183260Y0052486D01*
X0183287Y0052588D02*
X0183165Y0052131D01*
X0183165Y0050319D01*
X0187327Y0050319D01*
X0191489Y0050319D01*
X0191489Y0052131D01*
X0191366Y0052588D01*
X0191129Y0052999D01*
X0190794Y0053334D01*
X0190384Y0053571D01*
X0189926Y0053694D01*
X0187327Y0053694D01*
X0187327Y0050319D01*
X0187327Y0050319D01*
X0187327Y0050319D01*
X0191489Y0050319D01*
X0191489Y0048507D01*
X0191366Y0048049D01*
X0191129Y0047639D01*
X0190794Y0047304D01*
X0190384Y0047067D01*
X0189926Y0046944D01*
X0187327Y0046944D01*
X0187327Y0050319D01*
X0187327Y0050319D01*
X0187327Y0053694D01*
X0184728Y0053694D01*
X0184270Y0053571D01*
X0183859Y0053334D01*
X0183524Y0052999D01*
X0183287Y0052588D01*
X0183165Y0050888D02*
X0182237Y0050888D01*
X0183165Y0050319D02*
X0183165Y0048507D01*
X0183287Y0048049D01*
X0183524Y0047639D01*
X0183859Y0047304D01*
X0184270Y0047067D01*
X0184728Y0046944D01*
X0187327Y0046944D01*
X0187327Y0050319D01*
X0187327Y0050319D01*
X0183165Y0050319D01*
X0183165Y0049289D02*
X0182237Y0049289D01*
X0181907Y0047691D02*
X0183494Y0047691D01*
X0187327Y0047691D02*
X0187327Y0047691D01*
X0187327Y0049289D02*
X0187327Y0049289D01*
X0187327Y0050888D02*
X0187327Y0050888D01*
X0187327Y0052486D02*
X0187327Y0052486D01*
X0191394Y0052486D02*
X0196871Y0052486D01*
X0197634Y0050888D02*
X0191489Y0050888D01*
X0191489Y0049289D02*
X0195326Y0049289D01*
X0194388Y0047691D02*
X0191159Y0047691D01*
X0199347Y0047691D02*
X0199716Y0047691D01*
X0199716Y0049289D02*
X0199347Y0049289D01*
X0199347Y0050888D02*
X0199716Y0050888D01*
X0195073Y0054085D02*
X0170324Y0054085D01*
X0172977Y0052486D02*
X0174008Y0052486D01*
X0173913Y0050888D02*
X0173217Y0050888D01*
X0173217Y0049289D02*
X0173913Y0049289D01*
X0155417Y0047233D02*
X0150649Y0047233D01*
X0148350Y0049531D01*
X0144939Y0046087D02*
X0145604Y0045422D01*
X0147386Y0044683D01*
X0149315Y0044683D01*
X0149924Y0044936D01*
X0150171Y0044833D01*
X0152617Y0044833D01*
X0152617Y0042220D01*
X0153471Y0041366D01*
X0152691Y0041043D01*
X0151327Y0039679D01*
X0150589Y0037897D01*
X0150589Y0035969D01*
X0151327Y0034187D01*
X0152691Y0032823D01*
X0153339Y0032555D01*
X0153112Y0032423D01*
X0152777Y0032088D01*
X0152540Y0031678D01*
X0152417Y0031220D01*
X0152417Y0026633D01*
X0152417Y0022046D01*
X0152507Y0021710D01*
X0151976Y0021710D01*
X0142576Y0031110D01*
X0141346Y0032340D01*
X0133735Y0032340D01*
X0144939Y0043544D01*
X0144939Y0046087D01*
X0144939Y0044494D02*
X0152617Y0044494D01*
X0152617Y0042895D02*
X0144290Y0042895D01*
X0142692Y0041297D02*
X0153304Y0041297D01*
X0151346Y0039698D02*
X0141093Y0039698D01*
X0139495Y0038100D02*
X0150673Y0038100D01*
X0150589Y0036501D02*
X0137896Y0036501D01*
X0136298Y0034903D02*
X0151030Y0034903D01*
X0152210Y0033304D02*
X0134699Y0033304D01*
X0141981Y0031706D02*
X0152556Y0031706D01*
X0152417Y0030107D02*
X0143579Y0030107D01*
X0145178Y0028509D02*
X0152417Y0028509D01*
X0152417Y0026910D02*
X0146776Y0026910D01*
X0148375Y0025312D02*
X0152417Y0025312D01*
X0152417Y0026633D02*
X0155417Y0026633D01*
X0155417Y0026633D01*
X0152417Y0026633D01*
X0152417Y0023713D02*
X0149973Y0023713D01*
X0151572Y0022115D02*
X0152417Y0022115D01*
X0148829Y0018918D02*
X0016272Y0018918D01*
X0016272Y0020516D02*
X0147230Y0020516D01*
X0145632Y0022115D02*
X0016272Y0022115D01*
X0016272Y0023713D02*
X0144033Y0023713D01*
X0142435Y0025312D02*
X0016272Y0025312D01*
X0016272Y0026910D02*
X0140836Y0026910D01*
X0166769Y0018918D02*
X0205331Y0018918D01*
X0205331Y0020516D02*
X0192727Y0020516D01*
X0193786Y0022115D02*
X0205331Y0022115D01*
X0205331Y0023713D02*
X0194143Y0023713D01*
X0193975Y0025312D02*
X0205331Y0025312D01*
X0205331Y0026910D02*
X0193182Y0026910D01*
X0190936Y0028509D02*
X0205331Y0028509D01*
X0189295Y0023941D02*
X0186736Y0026500D01*
X0180240Y0026500D01*
X0170550Y0026500D01*
X0170417Y0026633D01*
X0173217Y0023713D02*
X0176827Y0023713D01*
X0173217Y0022115D02*
X0184804Y0022115D01*
X0184447Y0023713D02*
X0183653Y0023713D01*
X0185864Y0020516D02*
X0167773Y0020516D01*
X0199347Y0041297D02*
X0199716Y0041297D01*
X0199716Y0042895D02*
X0199347Y0042895D01*
X0199347Y0044494D02*
X0199716Y0044494D01*
X0199716Y0046092D02*
X0199347Y0046092D01*
D19*
X0171579Y0036146D03*
X0155437Y0036933D03*
X0141657Y0035358D03*
X0148350Y0049531D03*
X0189689Y0066854D03*
X0171579Y0079059D03*
X0156224Y0078665D03*
X0147169Y0094020D03*
X0046382Y0049138D03*
X0189295Y0023941D03*
D20*
X0180240Y0033587D02*
X0177681Y0036146D01*
X0171579Y0036146D01*
X0165417Y0039039D02*
X0160417Y0034039D01*
X0160417Y0026633D01*
X0165417Y0026633D02*
X0165673Y0026377D01*
X0165673Y0020791D01*
X0164492Y0019610D01*
X0151106Y0019610D01*
X0140476Y0030240D01*
X0091657Y0030240D01*
X0084571Y0037327D01*
X0034177Y0037327D01*
X0025234Y0046270D01*
X0025234Y0047187D01*
X0035234Y0047187D02*
X0035234Y0043357D01*
X0038508Y0040083D01*
X0088114Y0040083D01*
X0095201Y0032996D01*
X0131421Y0032996D01*
X0142839Y0044413D01*
X0142839Y0058980D01*
X0145594Y0061736D01*
X0164098Y0061736D01*
X0165280Y0062917D01*
X0165280Y0068818D01*
X0165417Y0068956D01*
X0160417Y0068956D02*
X0160417Y0075378D01*
X0165417Y0080378D01*
X0165417Y0089556D01*
X0167248Y0100516D01*
X0177484Y0100516D01*
X0186343Y0100713D01*
X0199335Y0100231D01*
X0178665Y0085161D02*
X0174271Y0089556D01*
X0170417Y0089556D01*
X0160417Y0089556D02*
X0160417Y0082858D01*
X0156224Y0078665D01*
X0171579Y0079059D02*
X0174531Y0076106D01*
X0180437Y0076106D01*
X0160417Y0089556D02*
X0160417Y0100260D01*
X0160161Y0100516D01*
X0110555Y0079217D02*
X0110555Y0073154D01*
X0115872Y0067837D01*
X0138555Y0067837D01*
X0138555Y0062524D01*
X0133862Y0055437D02*
X0130555Y0058744D01*
X0125555Y0058744D02*
X0125555Y0054437D01*
X0132012Y0047980D01*
X0138555Y0048524D02*
X0139098Y0047980D01*
X0138555Y0048524D02*
X0138555Y0055437D01*
X0133862Y0055437D01*
X0120555Y0058744D02*
X0120503Y0058692D01*
X0120503Y0042798D01*
X0124046Y0039254D01*
X0110555Y0043083D02*
X0106833Y0039361D01*
X0110555Y0043083D02*
X0110555Y0058744D01*
X0100114Y0067437D02*
X0092555Y0067437D01*
X0092555Y0062524D01*
X0100114Y0067437D02*
X0105437Y0072760D01*
X0105437Y0079098D01*
X0105555Y0079217D01*
X0100555Y0079217D02*
X0097248Y0079217D01*
X0092555Y0074524D01*
X0089892Y0077187D01*
X0035234Y0077187D01*
X0025234Y0077187D02*
X0041476Y0093428D01*
X0053501Y0093428D01*
X0066436Y0093428D01*
X0069518Y0090346D01*
X0047964Y0057187D02*
X0035234Y0057187D01*
X0047964Y0057187D02*
X0057939Y0047212D01*
X0058534Y0046617D01*
X0068704Y0046617D01*
X0092512Y0047980D02*
X0092512Y0055394D01*
X0092555Y0055437D01*
X0093012Y0055437D01*
X0155437Y0036933D02*
X0160417Y0041913D01*
X0160417Y0047233D01*
X0160161Y0047489D01*
X0160161Y0057209D01*
X0165417Y0055378D02*
X0167248Y0057209D01*
X0177878Y0057209D01*
X0178075Y0057406D01*
X0187327Y0057406D01*
X0199247Y0057406D01*
X0199531Y0057121D01*
X0178469Y0041067D02*
X0172302Y0047233D01*
X0170417Y0047233D01*
X0165417Y0047233D02*
X0165417Y0055378D01*
X0165417Y0047233D02*
X0165417Y0039039D01*
D21*
X0100555Y0055480D02*
X0092555Y0055480D01*
X0092555Y0055437D01*
X0100555Y0055480D02*
X0100555Y0058744D01*
M02*
