G75*
%MOIN*%
%OFA0B0*%
%FSLAX25Y25*%
%IPPOS*%
%LPD*%
%AMOC8*
5,1,8,0,0,1.08239X$1,22.5*
%
%ADD10R,0.04724X0.03150*%
%ADD11R,0.02362X0.08661*%
%ADD12R,0.03150X0.04724*%
%ADD13R,0.06299X0.05512*%
%ADD14R,0.02400X0.08700*%
D10*
X0068704Y0046617D03*
X0068704Y0053703D03*
X0068710Y0060772D03*
X0068710Y0067858D03*
X0092555Y0067437D03*
X0092555Y0062524D03*
X0092555Y0055437D03*
X0092555Y0074524D03*
X0069518Y0083260D03*
X0069518Y0090346D03*
X0138555Y0074924D03*
X0138555Y0067837D03*
X0138555Y0062524D03*
X0138555Y0055437D03*
X0178075Y0057406D03*
X0187327Y0057406D03*
X0187327Y0050319D03*
X0178075Y0050319D03*
X0180240Y0033587D03*
X0180240Y0026500D03*
X0180437Y0069020D03*
X0180437Y0076106D03*
X0177484Y0093429D03*
X0186343Y0093626D03*
X0186343Y0100713D03*
X0177484Y0100516D03*
D11*
X0130555Y0079217D03*
X0125555Y0079217D03*
X0120555Y0079217D03*
X0115555Y0079217D03*
X0110555Y0079217D03*
X0105555Y0079217D03*
X0100555Y0079217D03*
X0100555Y0058744D03*
X0105555Y0058744D03*
X0110555Y0058744D03*
X0115555Y0058744D03*
X0120555Y0058744D03*
X0125555Y0058744D03*
X0130555Y0058744D03*
D12*
X0132012Y0047980D03*
X0139098Y0047980D03*
X0160161Y0057209D03*
X0167248Y0057209D03*
X0178469Y0041067D03*
X0185555Y0041067D03*
X0185752Y0085161D03*
X0178665Y0085161D03*
X0167248Y0100516D03*
X0160161Y0100516D03*
X0136125Y0089854D03*
X0129039Y0089854D03*
X0121969Y0089954D03*
X0114882Y0089954D03*
X0099598Y0047980D03*
X0092512Y0047980D03*
D13*
X0080558Y0056534D03*
X0080558Y0067557D03*
D14*
X0155417Y0068956D03*
X0160417Y0068956D03*
X0165417Y0068956D03*
X0170417Y0068956D03*
X0170417Y0089556D03*
X0165417Y0089556D03*
X0160417Y0089556D03*
X0155417Y0089556D03*
X0155417Y0047233D03*
X0160417Y0047233D03*
X0165417Y0047233D03*
X0170417Y0047233D03*
X0170417Y0026633D03*
X0165417Y0026633D03*
X0160417Y0026633D03*
X0155417Y0026633D03*
M02*
