%
M48
M72
T01C0.03937
T02C0.04000
T03C0.04331
%
T01
X48501Y85928
X53501Y93428
X58501Y85928
X199335Y88831
X199335Y100231
X199531Y57121
X199531Y45721
T02
X25234Y47187
X35234Y47187
X35234Y57187
X25234Y57187
X25234Y67187
X35234Y67187
X35234Y77187
X25234Y77187
X25706Y93194
X57939Y67212
X57939Y57212
X57939Y47212
X106833Y39361
X124046Y39254
X143513Y82724
X95925Y89980
T03
X147169Y94020
X171579Y79059
X156224Y78665
X189689Y66854
X148350Y49531
X155437Y36933
X141657Y35358
X171579Y36146
X189295Y23941
X46382Y49138
M30
