G75*
%MOIN*%
%OFA0B0*%
%FSLAX25Y25*%
%IPPOS*%
%LPD*%
%AMOC8*
5,1,8,0,0,1.08239X$1,22.5*
%
%ADD10C,0.07400*%
%ADD11OC8,0.07400*%
%ADD12C,0.01600*%
%ADD13C,0.06496*%
%ADD14C,0.01000*%
D10*
X0057939Y0047212D03*
X0057939Y0057212D03*
X0057939Y0067212D03*
X0058501Y0085928D03*
X0053501Y0093428D03*
X0048501Y0085928D03*
X0025706Y0093194D03*
X0095925Y0089980D03*
X0143513Y0082724D03*
X0199335Y0088831D03*
X0199335Y0100231D03*
X0199531Y0057121D03*
X0199531Y0045721D03*
X0124046Y0039254D03*
X0106833Y0039361D03*
D11*
X0035234Y0047187D03*
X0025234Y0047187D03*
X0025234Y0057187D03*
X0035234Y0057187D03*
X0035234Y0067187D03*
X0025234Y0067187D03*
X0025234Y0077187D03*
X0035234Y0077187D03*
D12*
X0057939Y0085366D02*
X0057939Y0067212D01*
X0057939Y0085366D02*
X0058501Y0085928D01*
X0091873Y0085928D01*
X0095925Y0089980D01*
X0099965Y0094020D01*
X0147169Y0094020D01*
X0151500Y0089689D01*
X0151500Y0080634D01*
X0148350Y0077484D01*
X0148350Y0062524D01*
X0148744Y0062130D01*
X0185752Y0062130D01*
X0189689Y0066067D01*
X0189689Y0066854D01*
X0148350Y0062524D02*
X0148350Y0049531D01*
X0148350Y0024335D01*
X0153075Y0019610D01*
X0184965Y0019610D01*
X0189295Y0023941D01*
X0143513Y0076040D02*
X0106833Y0039361D01*
X0143513Y0076040D02*
X0143513Y0082724D01*
D13*
X0156224Y0078665D03*
X0171579Y0079059D03*
X0189689Y0066854D03*
X0148350Y0049531D03*
X0155437Y0036933D03*
X0141657Y0035358D03*
X0171579Y0036146D03*
X0189295Y0023941D03*
X0147169Y0094020D03*
X0046382Y0049138D03*
D14*
X0015972Y0017192D02*
X0015972Y0108294D01*
X0205631Y0108294D01*
X0205631Y0017192D01*
X0015972Y0017192D01*
X0015972Y0017516D02*
X0152199Y0017516D01*
X0152205Y0017510D02*
X0185834Y0017510D01*
X0187065Y0018740D01*
X0187914Y0019590D01*
X0188391Y0019393D01*
X0190200Y0019393D01*
X0191872Y0020085D01*
X0193151Y0021365D01*
X0193843Y0023036D01*
X0193843Y0024846D01*
X0193151Y0026517D01*
X0191872Y0027797D01*
X0190200Y0028489D01*
X0188391Y0028489D01*
X0186719Y0027797D01*
X0185440Y0026517D01*
X0184747Y0024846D01*
X0184747Y0023036D01*
X0184945Y0022560D01*
X0184095Y0021710D01*
X0153945Y0021710D01*
X0150450Y0025204D01*
X0150450Y0045479D01*
X0150927Y0045676D01*
X0152206Y0046955D01*
X0152898Y0048627D01*
X0152898Y0050436D01*
X0152206Y0052108D01*
X0150927Y0053387D01*
X0150450Y0053584D01*
X0150450Y0060030D01*
X0186622Y0060030D01*
X0187852Y0061260D01*
X0188898Y0062306D01*
X0190594Y0062306D01*
X0192265Y0062999D01*
X0193545Y0064278D01*
X0194237Y0065950D01*
X0194237Y0067759D01*
X0193545Y0069431D01*
X0192265Y0070710D01*
X0190594Y0071402D01*
X0188784Y0071402D01*
X0187113Y0070710D01*
X0185833Y0069431D01*
X0185141Y0067759D01*
X0185141Y0065950D01*
X0185569Y0064917D01*
X0184882Y0064230D01*
X0150450Y0064230D01*
X0150450Y0076614D01*
X0151676Y0077840D01*
X0151676Y0077761D01*
X0152369Y0076089D01*
X0153648Y0074810D01*
X0155320Y0074117D01*
X0157129Y0074117D01*
X0158801Y0074810D01*
X0160080Y0076089D01*
X0160565Y0077259D01*
X0167402Y0077259D01*
X0167723Y0076483D01*
X0169002Y0075203D01*
X0170674Y0074511D01*
X0172483Y0074511D01*
X0174155Y0075203D01*
X0175434Y0076483D01*
X0176127Y0078154D01*
X0176127Y0079964D01*
X0175434Y0081635D01*
X0174155Y0082915D01*
X0172483Y0083607D01*
X0170674Y0083607D01*
X0169002Y0082915D01*
X0167723Y0081635D01*
X0167402Y0080859D01*
X0160238Y0080859D01*
X0160080Y0081242D01*
X0158801Y0082521D01*
X0157129Y0083213D01*
X0155320Y0083213D01*
X0153648Y0082521D01*
X0153600Y0082473D01*
X0153600Y0090559D01*
X0151520Y0092639D01*
X0151717Y0093115D01*
X0151717Y0094924D01*
X0151025Y0096596D01*
X0149746Y0097875D01*
X0148074Y0098568D01*
X0146265Y0098568D01*
X0144593Y0097875D01*
X0143314Y0096596D01*
X0143116Y0096120D01*
X0099095Y0096120D01*
X0097652Y0094677D01*
X0096920Y0094980D01*
X0094931Y0094980D01*
X0093093Y0094219D01*
X0091686Y0092813D01*
X0090925Y0090975D01*
X0090925Y0088986D01*
X0091229Y0088253D01*
X0091003Y0088028D01*
X0063043Y0088028D01*
X0062740Y0088761D01*
X0061333Y0090167D01*
X0059495Y0090928D01*
X0057877Y0090928D01*
X0058501Y0092434D01*
X0058501Y0094423D01*
X0057740Y0096261D01*
X0056333Y0097667D01*
X0054495Y0098428D01*
X0052506Y0098428D01*
X0050669Y0097667D01*
X0049262Y0096261D01*
X0048501Y0094423D01*
X0048501Y0092434D01*
X0049051Y0091106D01*
X0048985Y0091116D01*
X0048985Y0086413D01*
X0048017Y0086413D01*
X0048017Y0091116D01*
X0047283Y0091000D01*
X0046505Y0090747D01*
X0045775Y0090376D01*
X0045113Y0089895D01*
X0044534Y0089316D01*
X0044053Y0088654D01*
X0043682Y0087924D01*
X0043429Y0087146D01*
X0043313Y0086413D01*
X0015972Y0086413D01*
X0015972Y0085415D02*
X0043317Y0085415D01*
X0043313Y0085444D02*
X0043429Y0084711D01*
X0043682Y0083932D01*
X0044053Y0083203D01*
X0044534Y0082541D01*
X0045113Y0081962D01*
X0045775Y0081481D01*
X0046505Y0081109D01*
X0047283Y0080856D01*
X0048017Y0080740D01*
X0048017Y0085444D01*
X0048985Y0085444D01*
X0048985Y0080740D01*
X0049718Y0080856D01*
X0050497Y0081109D01*
X0051226Y0081481D01*
X0051888Y0081962D01*
X0052467Y0082541D01*
X0052948Y0083203D01*
X0053320Y0083932D01*
X0053573Y0084711D01*
X0053578Y0084746D01*
X0054262Y0083096D01*
X0055669Y0081690D01*
X0055839Y0081619D01*
X0055839Y0071754D01*
X0055106Y0071451D01*
X0053700Y0070044D01*
X0052939Y0068206D01*
X0052939Y0066217D01*
X0053700Y0064380D01*
X0055106Y0062973D01*
X0056757Y0062289D01*
X0056721Y0062284D01*
X0055942Y0062031D01*
X0055213Y0061659D01*
X0054551Y0061178D01*
X0053972Y0060599D01*
X0053491Y0059937D01*
X0053120Y0059208D01*
X0052867Y0058429D01*
X0052753Y0057712D01*
X0057439Y0057712D01*
X0057439Y0056712D01*
X0052753Y0056712D01*
X0052867Y0055994D01*
X0053120Y0055216D01*
X0053491Y0054486D01*
X0053972Y0053824D01*
X0054551Y0053245D01*
X0055213Y0052764D01*
X0055942Y0052393D01*
X0056721Y0052140D01*
X0056757Y0052134D01*
X0055106Y0051451D01*
X0053700Y0050044D01*
X0052939Y0048206D01*
X0052939Y0046217D01*
X0053700Y0044380D01*
X0055106Y0042973D01*
X0056944Y0042212D01*
X0058933Y0042212D01*
X0060771Y0042973D01*
X0062177Y0044380D01*
X0062939Y0046217D01*
X0062939Y0048206D01*
X0062177Y0050044D01*
X0060771Y0051451D01*
X0059120Y0052134D01*
X0059156Y0052140D01*
X0059935Y0052393D01*
X0060664Y0052764D01*
X0061326Y0053245D01*
X0061905Y0053824D01*
X0062386Y0054486D01*
X0062758Y0055216D01*
X0063011Y0055994D01*
X0063124Y0056712D01*
X0058439Y0056712D01*
X0058439Y0057712D01*
X0063124Y0057712D01*
X0063011Y0058429D01*
X0062758Y0059208D01*
X0062386Y0059937D01*
X0061905Y0060599D01*
X0061326Y0061178D01*
X0060664Y0061659D01*
X0059935Y0062031D01*
X0059156Y0062284D01*
X0059120Y0062289D01*
X0060771Y0062973D01*
X0062177Y0064380D01*
X0062939Y0066217D01*
X0062939Y0068206D01*
X0062177Y0070044D01*
X0060771Y0071451D01*
X0060039Y0071754D01*
X0060039Y0081153D01*
X0061333Y0081690D01*
X0062740Y0083096D01*
X0063043Y0083828D01*
X0092743Y0083828D01*
X0093973Y0085058D01*
X0094198Y0085284D01*
X0094931Y0084980D01*
X0096920Y0084980D01*
X0098757Y0085742D01*
X0100164Y0087148D01*
X0100925Y0088986D01*
X0100925Y0090975D01*
X0100622Y0091707D01*
X0100834Y0091920D01*
X0143116Y0091920D01*
X0143314Y0091443D01*
X0144593Y0090164D01*
X0146265Y0089472D01*
X0148074Y0089472D01*
X0148550Y0089669D01*
X0149400Y0088819D01*
X0149400Y0081504D01*
X0146250Y0078354D01*
X0146250Y0053584D01*
X0145774Y0053387D01*
X0144495Y0052108D01*
X0143802Y0050436D01*
X0143802Y0048627D01*
X0144495Y0046955D01*
X0145774Y0045676D01*
X0146250Y0045479D01*
X0146250Y0023465D01*
X0152205Y0017510D01*
X0151200Y0018515D02*
X0015972Y0018515D01*
X0015972Y0019513D02*
X0150202Y0019513D01*
X0149203Y0020512D02*
X0015972Y0020512D01*
X0015972Y0021510D02*
X0148205Y0021510D01*
X0147206Y0022509D02*
X0015972Y0022509D01*
X0015972Y0023507D02*
X0146250Y0023507D01*
X0146250Y0024506D02*
X0015972Y0024506D01*
X0015972Y0025504D02*
X0146250Y0025504D01*
X0146250Y0026503D02*
X0015972Y0026503D01*
X0015972Y0027501D02*
X0146250Y0027501D01*
X0146250Y0028500D02*
X0015972Y0028500D01*
X0015972Y0029498D02*
X0146250Y0029498D01*
X0146250Y0030497D02*
X0015972Y0030497D01*
X0015972Y0031495D02*
X0146250Y0031495D01*
X0146250Y0032494D02*
X0015972Y0032494D01*
X0015972Y0033492D02*
X0146250Y0033492D01*
X0146250Y0034491D02*
X0125612Y0034491D01*
X0125041Y0034254D02*
X0126879Y0035016D01*
X0128285Y0036422D01*
X0129046Y0038260D01*
X0129046Y0040249D01*
X0128285Y0042087D01*
X0126879Y0043493D01*
X0125041Y0044254D01*
X0123052Y0044254D01*
X0121214Y0043493D01*
X0119808Y0042087D01*
X0119046Y0040249D01*
X0119046Y0038260D01*
X0119808Y0036422D01*
X0121214Y0035016D01*
X0123052Y0034254D01*
X0125041Y0034254D01*
X0122481Y0034491D02*
X0108142Y0034491D01*
X0107828Y0034361D02*
X0109665Y0035122D01*
X0111072Y0036528D01*
X0111833Y0038366D01*
X0111833Y0040355D01*
X0111530Y0041087D01*
X0145613Y0075170D01*
X0145613Y0078182D01*
X0146345Y0078485D01*
X0147751Y0079891D01*
X0148513Y0081729D01*
X0148513Y0083718D01*
X0147751Y0085556D01*
X0146345Y0086962D01*
X0144507Y0087724D01*
X0142518Y0087724D01*
X0140680Y0086962D01*
X0139274Y0085556D01*
X0138513Y0083718D01*
X0138513Y0081729D01*
X0139274Y0079891D01*
X0140680Y0078485D01*
X0141413Y0078182D01*
X0141413Y0076910D01*
X0108560Y0044057D01*
X0107828Y0044361D01*
X0105838Y0044361D01*
X0104001Y0043599D01*
X0102594Y0042193D01*
X0101833Y0040355D01*
X0101833Y0038366D01*
X0102594Y0036528D01*
X0104001Y0035122D01*
X0105838Y0034361D01*
X0107828Y0034361D01*
X0105524Y0034491D02*
X0015972Y0034491D01*
X0015972Y0035489D02*
X0103633Y0035489D01*
X0102635Y0036488D02*
X0015972Y0036488D01*
X0015972Y0037486D02*
X0102197Y0037486D01*
X0101833Y0038485D02*
X0015972Y0038485D01*
X0015972Y0039483D02*
X0101833Y0039483D01*
X0101886Y0040482D02*
X0015972Y0040482D01*
X0015972Y0041480D02*
X0102299Y0041480D01*
X0102880Y0042479D02*
X0059578Y0042479D01*
X0061275Y0043477D02*
X0103879Y0043477D01*
X0108979Y0044476D02*
X0062217Y0044476D01*
X0062631Y0045474D02*
X0109977Y0045474D01*
X0110976Y0046473D02*
X0062939Y0046473D01*
X0062939Y0047472D02*
X0111974Y0047472D01*
X0112973Y0048470D02*
X0062829Y0048470D01*
X0062416Y0049469D02*
X0113971Y0049469D01*
X0114970Y0050467D02*
X0061754Y0050467D01*
X0060735Y0051466D02*
X0115968Y0051466D01*
X0116967Y0052464D02*
X0060075Y0052464D01*
X0061543Y0053463D02*
X0117965Y0053463D01*
X0118964Y0054461D02*
X0062368Y0054461D01*
X0062837Y0055460D02*
X0119962Y0055460D01*
X0120961Y0056458D02*
X0063084Y0056458D01*
X0058439Y0057457D02*
X0121959Y0057457D01*
X0122958Y0058455D02*
X0063002Y0058455D01*
X0062632Y0059454D02*
X0123956Y0059454D01*
X0124955Y0060452D02*
X0062012Y0060452D01*
X0060951Y0061451D02*
X0125953Y0061451D01*
X0126952Y0062449D02*
X0059506Y0062449D01*
X0061246Y0063448D02*
X0127950Y0063448D01*
X0128949Y0064446D02*
X0062205Y0064446D01*
X0062619Y0065445D02*
X0129947Y0065445D01*
X0130946Y0066443D02*
X0062939Y0066443D01*
X0062939Y0067442D02*
X0131944Y0067442D01*
X0132943Y0068440D02*
X0062842Y0068440D01*
X0062428Y0069439D02*
X0133941Y0069439D01*
X0134940Y0070437D02*
X0061784Y0070437D01*
X0060786Y0071436D02*
X0135938Y0071436D01*
X0136937Y0072434D02*
X0060039Y0072434D01*
X0060039Y0073433D02*
X0137935Y0073433D01*
X0138934Y0074431D02*
X0060039Y0074431D01*
X0060039Y0075430D02*
X0139932Y0075430D01*
X0140931Y0076428D02*
X0060039Y0076428D01*
X0060039Y0077427D02*
X0141413Y0077427D01*
X0140824Y0078425D02*
X0060039Y0078425D01*
X0060039Y0079424D02*
X0139741Y0079424D01*
X0139054Y0080422D02*
X0060039Y0080422D01*
X0060684Y0081421D02*
X0138640Y0081421D01*
X0138513Y0082419D02*
X0062063Y0082419D01*
X0062873Y0083418D02*
X0138513Y0083418D01*
X0138802Y0084416D02*
X0093331Y0084416D01*
X0091163Y0088410D02*
X0062885Y0088410D01*
X0062091Y0089409D02*
X0090925Y0089409D01*
X0090925Y0090408D02*
X0060753Y0090408D01*
X0058075Y0091406D02*
X0091104Y0091406D01*
X0091517Y0092405D02*
X0058489Y0092405D01*
X0058501Y0093403D02*
X0092277Y0093403D01*
X0093533Y0094402D02*
X0058501Y0094402D01*
X0058096Y0095400D02*
X0098375Y0095400D01*
X0100747Y0091406D02*
X0143351Y0091406D01*
X0144350Y0090408D02*
X0100925Y0090408D01*
X0100925Y0089409D02*
X0148810Y0089409D01*
X0149400Y0088410D02*
X0100687Y0088410D01*
X0100273Y0087412D02*
X0141766Y0087412D01*
X0140131Y0086413D02*
X0099429Y0086413D01*
X0097969Y0085415D02*
X0139215Y0085415D01*
X0145260Y0087412D02*
X0149400Y0087412D01*
X0149400Y0086413D02*
X0146894Y0086413D01*
X0147810Y0085415D02*
X0149400Y0085415D01*
X0149400Y0084416D02*
X0148223Y0084416D01*
X0148513Y0083418D02*
X0149400Y0083418D01*
X0149400Y0082419D02*
X0148513Y0082419D01*
X0148385Y0081421D02*
X0149317Y0081421D01*
X0148319Y0080422D02*
X0147971Y0080422D01*
X0147320Y0079424D02*
X0147284Y0079424D01*
X0146322Y0078425D02*
X0146201Y0078425D01*
X0146250Y0077427D02*
X0145613Y0077427D01*
X0145613Y0076428D02*
X0146250Y0076428D01*
X0146250Y0075430D02*
X0145613Y0075430D01*
X0146250Y0074431D02*
X0144874Y0074431D01*
X0143875Y0073433D02*
X0146250Y0073433D01*
X0146250Y0072434D02*
X0142877Y0072434D01*
X0141878Y0071436D02*
X0146250Y0071436D01*
X0146250Y0070437D02*
X0140880Y0070437D01*
X0139881Y0069439D02*
X0146250Y0069439D01*
X0146250Y0068440D02*
X0138883Y0068440D01*
X0137884Y0067442D02*
X0146250Y0067442D01*
X0146250Y0066443D02*
X0136886Y0066443D01*
X0135887Y0065445D02*
X0146250Y0065445D01*
X0146250Y0064446D02*
X0134888Y0064446D01*
X0133890Y0063448D02*
X0146250Y0063448D01*
X0146250Y0062449D02*
X0132891Y0062449D01*
X0131893Y0061451D02*
X0146250Y0061451D01*
X0146250Y0060452D02*
X0130894Y0060452D01*
X0129896Y0059454D02*
X0146250Y0059454D01*
X0146250Y0058455D02*
X0128897Y0058455D01*
X0127899Y0057457D02*
X0146250Y0057457D01*
X0146250Y0056458D02*
X0126900Y0056458D01*
X0125902Y0055460D02*
X0146250Y0055460D01*
X0146250Y0054461D02*
X0124903Y0054461D01*
X0123905Y0053463D02*
X0145956Y0053463D01*
X0144851Y0052464D02*
X0122906Y0052464D01*
X0121908Y0051466D02*
X0144229Y0051466D01*
X0143815Y0050467D02*
X0120909Y0050467D01*
X0119911Y0049469D02*
X0143802Y0049469D01*
X0143867Y0048470D02*
X0118912Y0048470D01*
X0117914Y0047472D02*
X0144281Y0047472D01*
X0144977Y0046473D02*
X0116915Y0046473D01*
X0115917Y0045474D02*
X0146250Y0045474D01*
X0146250Y0044476D02*
X0114918Y0044476D01*
X0113920Y0043477D02*
X0121199Y0043477D01*
X0120200Y0042479D02*
X0112921Y0042479D01*
X0111923Y0041480D02*
X0119557Y0041480D01*
X0119143Y0040482D02*
X0111781Y0040482D01*
X0111833Y0039483D02*
X0119046Y0039483D01*
X0119046Y0038485D02*
X0111833Y0038485D01*
X0111469Y0037486D02*
X0119367Y0037486D01*
X0119780Y0036488D02*
X0111031Y0036488D01*
X0110033Y0035489D02*
X0120740Y0035489D01*
X0127353Y0035489D02*
X0146250Y0035489D01*
X0146250Y0036488D02*
X0128312Y0036488D01*
X0128726Y0037486D02*
X0146250Y0037486D01*
X0146250Y0038485D02*
X0129046Y0038485D01*
X0129046Y0039483D02*
X0146250Y0039483D01*
X0146250Y0040482D02*
X0128950Y0040482D01*
X0128536Y0041480D02*
X0146250Y0041480D01*
X0146250Y0042479D02*
X0127893Y0042479D01*
X0126894Y0043477D02*
X0146250Y0043477D01*
X0150450Y0043477D02*
X0194839Y0043477D01*
X0194712Y0043725D02*
X0195084Y0042996D01*
X0195565Y0042334D01*
X0196144Y0041755D01*
X0196806Y0041274D01*
X0197535Y0040902D01*
X0198314Y0040649D01*
X0199047Y0040533D01*
X0199047Y0045237D01*
X0194343Y0045237D01*
X0194460Y0044504D01*
X0194712Y0043725D01*
X0194468Y0044476D02*
X0150450Y0044476D01*
X0150450Y0045474D02*
X0199047Y0045474D01*
X0199047Y0045237D02*
X0199047Y0046206D01*
X0199047Y0050909D01*
X0198314Y0050793D01*
X0197535Y0050540D01*
X0196806Y0050169D01*
X0196144Y0049688D01*
X0195565Y0049109D01*
X0195084Y0048447D01*
X0194712Y0047717D01*
X0194460Y0046939D01*
X0194343Y0046206D01*
X0199047Y0046206D01*
X0200016Y0046206D01*
X0200016Y0050909D01*
X0200749Y0050793D01*
X0201528Y0050540D01*
X0202257Y0050169D01*
X0202919Y0049688D01*
X0203498Y0049109D01*
X0203979Y0048447D01*
X0204351Y0047717D01*
X0204603Y0046939D01*
X0204720Y0046206D01*
X0200016Y0046206D01*
X0200016Y0045237D01*
X0204720Y0045237D01*
X0204603Y0044504D01*
X0204351Y0043725D01*
X0203979Y0042996D01*
X0203498Y0042334D01*
X0202919Y0041755D01*
X0202257Y0041274D01*
X0201528Y0040902D01*
X0200749Y0040649D01*
X0200016Y0040533D01*
X0200016Y0045237D01*
X0199047Y0045237D01*
X0199047Y0044476D02*
X0200016Y0044476D01*
X0200016Y0045474D02*
X0205631Y0045474D01*
X0205631Y0044476D02*
X0204594Y0044476D01*
X0204224Y0043477D02*
X0205631Y0043477D01*
X0205631Y0042479D02*
X0203603Y0042479D01*
X0202541Y0041480D02*
X0205631Y0041480D01*
X0205631Y0040482D02*
X0172995Y0040482D01*
X0172483Y0040694D02*
X0170674Y0040694D01*
X0169002Y0040001D01*
X0167734Y0038733D01*
X0159614Y0038733D01*
X0159293Y0039509D01*
X0158013Y0040789D01*
X0156342Y0041481D01*
X0154532Y0041481D01*
X0152861Y0040789D01*
X0151581Y0039509D01*
X0150889Y0037838D01*
X0150889Y0036028D01*
X0151581Y0034357D01*
X0152861Y0033077D01*
X0154532Y0032385D01*
X0156342Y0032385D01*
X0158013Y0033077D01*
X0159293Y0034357D01*
X0159614Y0035133D01*
X0167075Y0035133D01*
X0167723Y0033569D01*
X0169002Y0032290D01*
X0170674Y0031598D01*
X0172483Y0031598D01*
X0174155Y0032290D01*
X0175434Y0033569D01*
X0176127Y0035241D01*
X0176127Y0037050D01*
X0175434Y0038722D01*
X0174155Y0040001D01*
X0172483Y0040694D01*
X0170163Y0040482D02*
X0158320Y0040482D01*
X0159303Y0039483D02*
X0168485Y0039483D01*
X0170791Y0036933D02*
X0155437Y0036933D01*
X0159348Y0034491D02*
X0167341Y0034491D01*
X0167800Y0033492D02*
X0158428Y0033492D01*
X0156604Y0032494D02*
X0168799Y0032494D01*
X0174359Y0032494D02*
X0205631Y0032494D01*
X0205631Y0033492D02*
X0175357Y0033492D01*
X0175816Y0034491D02*
X0205631Y0034491D01*
X0205631Y0035489D02*
X0176127Y0035489D01*
X0176127Y0036488D02*
X0205631Y0036488D01*
X0205631Y0037486D02*
X0175946Y0037486D01*
X0175533Y0038485D02*
X0205631Y0038485D01*
X0205631Y0039483D02*
X0174673Y0039483D01*
X0171579Y0036146D02*
X0170791Y0036933D01*
X0156343Y0041480D02*
X0196522Y0041480D01*
X0195460Y0042479D02*
X0150450Y0042479D01*
X0150450Y0041480D02*
X0154531Y0041480D01*
X0152554Y0040482D02*
X0150450Y0040482D01*
X0150450Y0039483D02*
X0151571Y0039483D01*
X0151157Y0038485D02*
X0150450Y0038485D01*
X0150450Y0037486D02*
X0150889Y0037486D01*
X0150889Y0036488D02*
X0150450Y0036488D01*
X0150450Y0035489D02*
X0151112Y0035489D01*
X0151526Y0034491D02*
X0150450Y0034491D01*
X0150450Y0033492D02*
X0152446Y0033492D01*
X0154270Y0032494D02*
X0150450Y0032494D01*
X0150450Y0031495D02*
X0205631Y0031495D01*
X0205631Y0030497D02*
X0150450Y0030497D01*
X0150450Y0029498D02*
X0205631Y0029498D01*
X0205631Y0028500D02*
X0150450Y0028500D01*
X0150450Y0027501D02*
X0186424Y0027501D01*
X0185434Y0026503D02*
X0150450Y0026503D01*
X0150450Y0025504D02*
X0185020Y0025504D01*
X0184747Y0024506D02*
X0151149Y0024506D01*
X0152148Y0023507D02*
X0184747Y0023507D01*
X0184893Y0022509D02*
X0153146Y0022509D01*
X0185840Y0017516D02*
X0205631Y0017516D01*
X0205631Y0018515D02*
X0186839Y0018515D01*
X0187837Y0019513D02*
X0188100Y0019513D01*
X0190490Y0019513D02*
X0205631Y0019513D01*
X0205631Y0020512D02*
X0192298Y0020512D01*
X0193211Y0021510D02*
X0205631Y0021510D01*
X0205631Y0022509D02*
X0193625Y0022509D01*
X0193843Y0023507D02*
X0205631Y0023507D01*
X0205631Y0024506D02*
X0193843Y0024506D01*
X0193570Y0025504D02*
X0205631Y0025504D01*
X0205631Y0026503D02*
X0193157Y0026503D01*
X0192167Y0027501D02*
X0205631Y0027501D01*
X0200016Y0041480D02*
X0199047Y0041480D01*
X0199047Y0042479D02*
X0200016Y0042479D01*
X0200016Y0043477D02*
X0199047Y0043477D01*
X0199047Y0046473D02*
X0200016Y0046473D01*
X0200016Y0047472D02*
X0199047Y0047472D01*
X0199047Y0048470D02*
X0200016Y0048470D01*
X0200016Y0049469D02*
X0199047Y0049469D01*
X0199047Y0050467D02*
X0200016Y0050467D01*
X0201671Y0050467D02*
X0205631Y0050467D01*
X0205631Y0049469D02*
X0203138Y0049469D01*
X0203962Y0048470D02*
X0205631Y0048470D01*
X0205631Y0047472D02*
X0204430Y0047472D01*
X0204677Y0046473D02*
X0205631Y0046473D01*
X0205631Y0051466D02*
X0152472Y0051466D01*
X0152886Y0050467D02*
X0197392Y0050467D01*
X0195925Y0049469D02*
X0152898Y0049469D01*
X0152833Y0048470D02*
X0195101Y0048470D01*
X0194633Y0047472D02*
X0152420Y0047472D01*
X0151724Y0046473D02*
X0194386Y0046473D01*
X0196699Y0052882D02*
X0198537Y0052121D01*
X0200526Y0052121D01*
X0202364Y0052882D01*
X0203770Y0054289D01*
X0204531Y0056127D01*
X0204531Y0058116D01*
X0203770Y0059954D01*
X0202364Y0061360D01*
X0200526Y0062121D01*
X0198537Y0062121D01*
X0196699Y0061360D01*
X0195293Y0059954D01*
X0194531Y0058116D01*
X0194531Y0056127D01*
X0195293Y0054289D01*
X0196699Y0052882D01*
X0196119Y0053463D02*
X0150744Y0053463D01*
X0150450Y0054461D02*
X0195221Y0054461D01*
X0194808Y0055460D02*
X0150450Y0055460D01*
X0150450Y0056458D02*
X0194531Y0056458D01*
X0194531Y0057457D02*
X0150450Y0057457D01*
X0150450Y0058455D02*
X0194672Y0058455D01*
X0195086Y0059454D02*
X0150450Y0059454D01*
X0150450Y0064446D02*
X0185098Y0064446D01*
X0185350Y0065445D02*
X0150450Y0065445D01*
X0150450Y0066443D02*
X0185141Y0066443D01*
X0185141Y0067442D02*
X0150450Y0067442D01*
X0150450Y0068440D02*
X0185423Y0068440D01*
X0185842Y0069439D02*
X0150450Y0069439D01*
X0150450Y0070437D02*
X0186840Y0070437D01*
X0192538Y0070437D02*
X0205631Y0070437D01*
X0205631Y0069439D02*
X0193536Y0069439D01*
X0193955Y0068440D02*
X0205631Y0068440D01*
X0205631Y0067442D02*
X0194237Y0067442D01*
X0194237Y0066443D02*
X0205631Y0066443D01*
X0205631Y0065445D02*
X0194028Y0065445D01*
X0193614Y0064446D02*
X0205631Y0064446D01*
X0205631Y0063448D02*
X0192714Y0063448D01*
X0190939Y0062449D02*
X0205631Y0062449D01*
X0205631Y0061451D02*
X0202145Y0061451D01*
X0203272Y0060452D02*
X0205631Y0060452D01*
X0205631Y0059454D02*
X0203977Y0059454D01*
X0204391Y0058455D02*
X0205631Y0058455D01*
X0205631Y0057457D02*
X0204531Y0057457D01*
X0204531Y0056458D02*
X0205631Y0056458D01*
X0205631Y0055460D02*
X0204255Y0055460D01*
X0203842Y0054461D02*
X0205631Y0054461D01*
X0205631Y0053463D02*
X0202944Y0053463D01*
X0201354Y0052464D02*
X0205631Y0052464D01*
X0197709Y0052464D02*
X0151850Y0052464D01*
X0150450Y0071436D02*
X0205631Y0071436D01*
X0205631Y0072434D02*
X0150450Y0072434D01*
X0150450Y0073433D02*
X0205631Y0073433D01*
X0205631Y0074431D02*
X0157887Y0074431D01*
X0159421Y0075430D02*
X0168776Y0075430D01*
X0167778Y0076428D02*
X0160221Y0076428D01*
X0156618Y0079059D02*
X0156224Y0078665D01*
X0156618Y0079059D02*
X0171579Y0079059D01*
X0167634Y0081421D02*
X0159901Y0081421D01*
X0158902Y0082419D02*
X0168507Y0082419D01*
X0170217Y0083418D02*
X0153600Y0083418D01*
X0153600Y0084416D02*
X0196565Y0084416D01*
X0196609Y0084384D02*
X0197339Y0084012D01*
X0198117Y0083760D01*
X0198850Y0083643D01*
X0198850Y0088347D01*
X0194147Y0088347D01*
X0194263Y0087614D01*
X0194516Y0086835D01*
X0194887Y0086106D01*
X0195368Y0085444D01*
X0195947Y0084865D01*
X0196609Y0084384D01*
X0195397Y0085415D02*
X0153600Y0085415D01*
X0153600Y0086413D02*
X0194731Y0086413D01*
X0194328Y0087412D02*
X0153600Y0087412D01*
X0153600Y0088410D02*
X0198850Y0088410D01*
X0198850Y0088347D02*
X0198850Y0089316D01*
X0194147Y0089316D01*
X0194263Y0090049D01*
X0194516Y0090828D01*
X0194887Y0091557D01*
X0195368Y0092219D01*
X0195947Y0092798D01*
X0196609Y0093279D01*
X0197339Y0093651D01*
X0198117Y0093903D01*
X0198850Y0094020D01*
X0198850Y0089316D01*
X0199819Y0089316D01*
X0199819Y0094020D01*
X0200552Y0093903D01*
X0201331Y0093651D01*
X0202060Y0093279D01*
X0202722Y0092798D01*
X0203301Y0092219D01*
X0203782Y0091557D01*
X0204154Y0090828D01*
X0204407Y0090049D01*
X0204523Y0089316D01*
X0199819Y0089316D01*
X0199819Y0088347D01*
X0199819Y0083643D01*
X0200552Y0083760D01*
X0201331Y0084012D01*
X0202060Y0084384D01*
X0202722Y0084865D01*
X0203301Y0085444D01*
X0203782Y0086106D01*
X0204154Y0086835D01*
X0204407Y0087614D01*
X0204523Y0088347D01*
X0199819Y0088347D01*
X0198850Y0088347D01*
X0198850Y0087412D02*
X0199819Y0087412D01*
X0199819Y0088410D02*
X0205631Y0088410D01*
X0205631Y0087412D02*
X0204341Y0087412D01*
X0203939Y0086413D02*
X0205631Y0086413D01*
X0205631Y0085415D02*
X0203272Y0085415D01*
X0202105Y0084416D02*
X0205631Y0084416D01*
X0205631Y0083418D02*
X0172940Y0083418D01*
X0174650Y0082419D02*
X0205631Y0082419D01*
X0205631Y0081421D02*
X0175523Y0081421D01*
X0175937Y0080422D02*
X0205631Y0080422D01*
X0205631Y0079424D02*
X0176127Y0079424D01*
X0176127Y0078425D02*
X0205631Y0078425D01*
X0205631Y0077427D02*
X0175825Y0077427D01*
X0175380Y0076428D02*
X0205631Y0076428D01*
X0205631Y0075430D02*
X0174381Y0075430D01*
X0154562Y0074431D02*
X0150450Y0074431D01*
X0150450Y0075430D02*
X0153028Y0075430D01*
X0152228Y0076428D02*
X0150450Y0076428D01*
X0151263Y0077427D02*
X0151815Y0077427D01*
X0153600Y0089409D02*
X0194161Y0089409D01*
X0194379Y0090408D02*
X0153600Y0090408D01*
X0152753Y0091406D02*
X0194810Y0091406D01*
X0195554Y0092405D02*
X0151754Y0092405D01*
X0151717Y0093403D02*
X0196853Y0093403D01*
X0198850Y0093403D02*
X0199819Y0093403D01*
X0199819Y0092405D02*
X0198850Y0092405D01*
X0198850Y0091406D02*
X0199819Y0091406D01*
X0199819Y0090408D02*
X0198850Y0090408D01*
X0198850Y0089409D02*
X0199819Y0089409D01*
X0203116Y0092405D02*
X0205631Y0092405D01*
X0205631Y0093403D02*
X0201816Y0093403D01*
X0200736Y0095400D02*
X0205631Y0095400D01*
X0205631Y0094402D02*
X0151717Y0094402D01*
X0151520Y0095400D02*
X0197933Y0095400D01*
X0198340Y0095231D02*
X0200329Y0095231D01*
X0202167Y0095993D01*
X0203573Y0097399D01*
X0204335Y0099237D01*
X0204335Y0101226D01*
X0203573Y0103064D01*
X0202167Y0104470D01*
X0200329Y0105231D01*
X0198340Y0105231D01*
X0196502Y0104470D01*
X0195096Y0103064D01*
X0194335Y0101226D01*
X0194335Y0099237D01*
X0195096Y0097399D01*
X0196502Y0095993D01*
X0198340Y0095231D01*
X0196096Y0096399D02*
X0151107Y0096399D01*
X0150224Y0097397D02*
X0195098Y0097397D01*
X0194683Y0098396D02*
X0148489Y0098396D01*
X0145849Y0098396D02*
X0054574Y0098396D01*
X0052427Y0098396D02*
X0015972Y0098396D01*
X0015972Y0099394D02*
X0194335Y0099394D01*
X0194335Y0100393D02*
X0015972Y0100393D01*
X0015972Y0101391D02*
X0194403Y0101391D01*
X0194817Y0102390D02*
X0015972Y0102390D01*
X0015972Y0103388D02*
X0195420Y0103388D01*
X0196419Y0104387D02*
X0015972Y0104387D01*
X0015972Y0105385D02*
X0205631Y0105385D01*
X0205631Y0104387D02*
X0202251Y0104387D01*
X0203249Y0103388D02*
X0205631Y0103388D01*
X0205631Y0102390D02*
X0203853Y0102390D01*
X0204266Y0101391D02*
X0205631Y0101391D01*
X0205631Y0100393D02*
X0204335Y0100393D01*
X0204335Y0099394D02*
X0205631Y0099394D01*
X0205631Y0098396D02*
X0203986Y0098396D01*
X0203571Y0097397D02*
X0205631Y0097397D01*
X0205631Y0096399D02*
X0202573Y0096399D01*
X0203859Y0091406D02*
X0205631Y0091406D01*
X0205631Y0090408D02*
X0204290Y0090408D01*
X0204508Y0089409D02*
X0205631Y0089409D01*
X0199819Y0086413D02*
X0198850Y0086413D01*
X0198850Y0085415D02*
X0199819Y0085415D01*
X0199819Y0084416D02*
X0198850Y0084416D01*
X0205631Y0106384D02*
X0015972Y0106384D01*
X0015972Y0107382D02*
X0205631Y0107382D01*
X0144115Y0097397D02*
X0056603Y0097397D01*
X0057602Y0096399D02*
X0143232Y0096399D01*
X0187044Y0060452D02*
X0195791Y0060452D01*
X0196918Y0061451D02*
X0188043Y0061451D01*
X0057439Y0057457D02*
X0040234Y0057457D01*
X0040234Y0058455D02*
X0052875Y0058455D01*
X0053245Y0059454D02*
X0040038Y0059454D01*
X0040234Y0059258D02*
X0037305Y0062187D01*
X0040234Y0065116D01*
X0040234Y0069258D01*
X0037305Y0072187D01*
X0040234Y0075116D01*
X0040234Y0079258D01*
X0037305Y0082187D01*
X0033163Y0082187D01*
X0030234Y0079258D01*
X0030234Y0075116D01*
X0033163Y0072187D01*
X0037305Y0072187D01*
X0033163Y0072187D01*
X0030234Y0069258D01*
X0030234Y0065116D01*
X0033163Y0062187D01*
X0037305Y0062187D01*
X0033163Y0062187D01*
X0030375Y0059399D01*
X0027446Y0062328D01*
X0030234Y0065116D01*
X0030234Y0069258D01*
X0027305Y0072187D01*
X0030234Y0075116D01*
X0030234Y0079258D01*
X0027305Y0082187D01*
X0023163Y0082187D01*
X0020234Y0079258D01*
X0020234Y0075116D01*
X0023163Y0072187D01*
X0027305Y0072187D01*
X0023163Y0072187D01*
X0020234Y0069258D01*
X0020234Y0065116D01*
X0023021Y0062328D01*
X0020034Y0059341D01*
X0020034Y0057687D01*
X0024734Y0057687D01*
X0024734Y0056687D01*
X0020034Y0056687D01*
X0020034Y0055033D01*
X0023021Y0052045D01*
X0020234Y0049258D01*
X0020234Y0045116D01*
X0023163Y0042187D01*
X0027305Y0042187D01*
X0030234Y0045116D01*
X0033163Y0042187D01*
X0037305Y0042187D01*
X0040234Y0045116D01*
X0040234Y0049258D01*
X0037305Y0052187D01*
X0040234Y0055116D01*
X0040234Y0059258D01*
X0039039Y0060452D02*
X0053865Y0060452D01*
X0054926Y0061451D02*
X0038041Y0061451D01*
X0037567Y0062449D02*
X0056371Y0062449D01*
X0054632Y0063448D02*
X0038566Y0063448D01*
X0039565Y0064446D02*
X0053672Y0064446D01*
X0053259Y0065445D02*
X0040234Y0065445D01*
X0040234Y0066443D02*
X0052939Y0066443D01*
X0052939Y0067442D02*
X0040234Y0067442D01*
X0040234Y0068440D02*
X0053035Y0068440D01*
X0053449Y0069439D02*
X0040053Y0069439D01*
X0039054Y0070437D02*
X0054093Y0070437D01*
X0055091Y0071436D02*
X0038056Y0071436D01*
X0037553Y0072434D02*
X0055839Y0072434D01*
X0055839Y0073433D02*
X0038551Y0073433D01*
X0039550Y0074431D02*
X0055839Y0074431D01*
X0055839Y0075430D02*
X0040234Y0075430D01*
X0040234Y0076428D02*
X0055839Y0076428D01*
X0055839Y0077427D02*
X0040234Y0077427D01*
X0040234Y0078425D02*
X0055839Y0078425D01*
X0055839Y0079424D02*
X0040068Y0079424D01*
X0039069Y0080422D02*
X0055839Y0080422D01*
X0055839Y0081421D02*
X0051108Y0081421D01*
X0052346Y0082419D02*
X0054939Y0082419D01*
X0054129Y0083418D02*
X0053058Y0083418D01*
X0053477Y0084416D02*
X0053715Y0084416D01*
X0048985Y0084416D02*
X0048017Y0084416D01*
X0048017Y0083418D02*
X0048985Y0083418D01*
X0048985Y0082419D02*
X0048017Y0082419D01*
X0048017Y0081421D02*
X0048985Y0081421D01*
X0045893Y0081421D02*
X0038071Y0081421D01*
X0032397Y0081421D02*
X0028071Y0081421D01*
X0029069Y0080422D02*
X0031399Y0080422D01*
X0030400Y0079424D02*
X0030068Y0079424D01*
X0030234Y0078425D02*
X0030234Y0078425D01*
X0030234Y0077427D02*
X0030234Y0077427D01*
X0030234Y0076428D02*
X0030234Y0076428D01*
X0030234Y0075430D02*
X0030234Y0075430D01*
X0029550Y0074431D02*
X0030918Y0074431D01*
X0031917Y0073433D02*
X0028551Y0073433D01*
X0027553Y0072434D02*
X0032915Y0072434D01*
X0032412Y0071436D02*
X0028056Y0071436D01*
X0029054Y0070437D02*
X0031413Y0070437D01*
X0030415Y0069439D02*
X0030053Y0069439D01*
X0030234Y0068440D02*
X0030234Y0068440D01*
X0030234Y0067442D02*
X0030234Y0067442D01*
X0030234Y0066443D02*
X0030234Y0066443D01*
X0030234Y0065445D02*
X0030234Y0065445D01*
X0029565Y0064446D02*
X0030903Y0064446D01*
X0031902Y0063448D02*
X0028566Y0063448D01*
X0027567Y0062449D02*
X0032900Y0062449D01*
X0032427Y0061451D02*
X0028324Y0061451D01*
X0029322Y0060452D02*
X0031428Y0060452D01*
X0030430Y0059454D02*
X0030321Y0059454D01*
X0030375Y0054974D02*
X0033163Y0052187D01*
X0037305Y0052187D01*
X0033163Y0052187D01*
X0030234Y0049258D01*
X0030234Y0045116D01*
X0030234Y0049258D01*
X0027446Y0052045D01*
X0030375Y0054974D01*
X0029862Y0054461D02*
X0030888Y0054461D01*
X0031887Y0053463D02*
X0028864Y0053463D01*
X0027865Y0052464D02*
X0032885Y0052464D01*
X0032442Y0051466D02*
X0028026Y0051466D01*
X0029024Y0050467D02*
X0031443Y0050467D01*
X0030445Y0049469D02*
X0030023Y0049469D01*
X0030234Y0048470D02*
X0030234Y0048470D01*
X0030234Y0047472D02*
X0030234Y0047472D01*
X0030234Y0046473D02*
X0030234Y0046473D01*
X0030234Y0045474D02*
X0030234Y0045474D01*
X0029594Y0044476D02*
X0030873Y0044476D01*
X0031872Y0043477D02*
X0028596Y0043477D01*
X0027597Y0042479D02*
X0032870Y0042479D01*
X0037597Y0042479D02*
X0056299Y0042479D01*
X0054602Y0043477D02*
X0038596Y0043477D01*
X0039594Y0044476D02*
X0053660Y0044476D01*
X0053246Y0045474D02*
X0040234Y0045474D01*
X0040234Y0046473D02*
X0052939Y0046473D01*
X0052939Y0047472D02*
X0040234Y0047472D01*
X0040234Y0048470D02*
X0053048Y0048470D01*
X0053461Y0049469D02*
X0040023Y0049469D01*
X0039024Y0050467D02*
X0054123Y0050467D01*
X0055142Y0051466D02*
X0038026Y0051466D01*
X0037582Y0052464D02*
X0055803Y0052464D01*
X0054334Y0053463D02*
X0038581Y0053463D01*
X0039579Y0054461D02*
X0053510Y0054461D01*
X0053040Y0055460D02*
X0040234Y0055460D01*
X0040234Y0056458D02*
X0052793Y0056458D01*
X0024734Y0057457D02*
X0015972Y0057457D01*
X0015972Y0058455D02*
X0020034Y0058455D01*
X0020147Y0059454D02*
X0015972Y0059454D01*
X0015972Y0060452D02*
X0021146Y0060452D01*
X0022144Y0061451D02*
X0015972Y0061451D01*
X0015972Y0062449D02*
X0022900Y0062449D01*
X0021902Y0063448D02*
X0015972Y0063448D01*
X0015972Y0064446D02*
X0020903Y0064446D01*
X0020234Y0065445D02*
X0015972Y0065445D01*
X0015972Y0066443D02*
X0020234Y0066443D01*
X0020234Y0067442D02*
X0015972Y0067442D01*
X0015972Y0068440D02*
X0020234Y0068440D01*
X0020415Y0069439D02*
X0015972Y0069439D01*
X0015972Y0070437D02*
X0021413Y0070437D01*
X0022412Y0071436D02*
X0015972Y0071436D01*
X0015972Y0072434D02*
X0022915Y0072434D01*
X0021917Y0073433D02*
X0015972Y0073433D01*
X0015972Y0074431D02*
X0020918Y0074431D01*
X0020234Y0075430D02*
X0015972Y0075430D01*
X0015972Y0076428D02*
X0020234Y0076428D01*
X0020234Y0077427D02*
X0015972Y0077427D01*
X0015972Y0078425D02*
X0020234Y0078425D01*
X0020400Y0079424D02*
X0015972Y0079424D01*
X0015972Y0080422D02*
X0021399Y0080422D01*
X0022397Y0081421D02*
X0015972Y0081421D01*
X0015972Y0082419D02*
X0044656Y0082419D01*
X0043944Y0083418D02*
X0015972Y0083418D01*
X0015972Y0084416D02*
X0043524Y0084416D01*
X0043313Y0085444D02*
X0048016Y0085444D01*
X0048016Y0086413D01*
X0043313Y0086413D01*
X0043515Y0087412D02*
X0015972Y0087412D01*
X0015972Y0088410D02*
X0023641Y0088410D01*
X0023709Y0088375D02*
X0024488Y0088123D01*
X0025206Y0088009D01*
X0025206Y0092694D01*
X0026205Y0092694D01*
X0026205Y0088009D01*
X0026923Y0088123D01*
X0027702Y0088375D01*
X0028431Y0088747D01*
X0029093Y0089228D01*
X0029672Y0089807D01*
X0030153Y0090469D01*
X0030525Y0091198D01*
X0030777Y0091977D01*
X0030891Y0092694D01*
X0026206Y0092694D01*
X0026206Y0093694D01*
X0030891Y0093694D01*
X0030777Y0094412D01*
X0030525Y0095191D01*
X0030153Y0095920D01*
X0029672Y0096582D01*
X0029093Y0097161D01*
X0028431Y0097642D01*
X0027702Y0098014D01*
X0026923Y0098266D01*
X0026205Y0098380D01*
X0026205Y0093695D01*
X0025206Y0093695D01*
X0025206Y0098380D01*
X0024488Y0098266D01*
X0023709Y0098014D01*
X0022980Y0097642D01*
X0022318Y0097161D01*
X0021739Y0096582D01*
X0021258Y0095920D01*
X0020886Y0095191D01*
X0020634Y0094412D01*
X0020520Y0093694D01*
X0025205Y0093694D01*
X0025205Y0092694D01*
X0020520Y0092694D01*
X0020634Y0091977D01*
X0020886Y0091198D01*
X0021258Y0090469D01*
X0021739Y0089807D01*
X0022318Y0089228D01*
X0022980Y0088747D01*
X0023709Y0088375D01*
X0025206Y0088410D02*
X0026205Y0088410D01*
X0026205Y0089409D02*
X0025206Y0089409D01*
X0025206Y0090408D02*
X0026205Y0090408D01*
X0026205Y0091406D02*
X0025206Y0091406D01*
X0025206Y0092405D02*
X0026205Y0092405D01*
X0026206Y0093403D02*
X0048501Y0093403D01*
X0048513Y0092405D02*
X0030845Y0092405D01*
X0030592Y0091406D02*
X0048927Y0091406D01*
X0048985Y0090408D02*
X0048017Y0090408D01*
X0048017Y0089409D02*
X0048985Y0089409D01*
X0048985Y0088410D02*
X0048017Y0088410D01*
X0048017Y0087412D02*
X0048985Y0087412D01*
X0048985Y0086413D02*
X0048017Y0086413D01*
X0048017Y0085415D02*
X0048985Y0085415D01*
X0043929Y0088410D02*
X0027770Y0088410D01*
X0029274Y0089409D02*
X0044628Y0089409D01*
X0045838Y0090408D02*
X0030108Y0090408D01*
X0025205Y0093403D02*
X0015972Y0093403D01*
X0015972Y0092405D02*
X0020566Y0092405D01*
X0020819Y0091406D02*
X0015972Y0091406D01*
X0015972Y0090408D02*
X0021303Y0090408D01*
X0022137Y0089409D02*
X0015972Y0089409D01*
X0015972Y0094402D02*
X0020632Y0094402D01*
X0020993Y0095400D02*
X0015972Y0095400D01*
X0015972Y0096399D02*
X0021606Y0096399D01*
X0022643Y0097397D02*
X0015972Y0097397D01*
X0025206Y0097397D02*
X0026205Y0097397D01*
X0026205Y0096399D02*
X0025206Y0096399D01*
X0025206Y0095400D02*
X0026205Y0095400D01*
X0026205Y0094402D02*
X0025206Y0094402D01*
X0028768Y0097397D02*
X0050398Y0097397D01*
X0049400Y0096399D02*
X0029805Y0096399D01*
X0030418Y0095400D02*
X0048906Y0095400D01*
X0048501Y0094402D02*
X0030779Y0094402D01*
X0020034Y0056458D02*
X0015972Y0056458D01*
X0015972Y0055460D02*
X0020034Y0055460D01*
X0020605Y0054461D02*
X0015972Y0054461D01*
X0015972Y0053463D02*
X0021604Y0053463D01*
X0022602Y0052464D02*
X0015972Y0052464D01*
X0015972Y0051466D02*
X0022442Y0051466D01*
X0021443Y0050467D02*
X0015972Y0050467D01*
X0015972Y0049469D02*
X0020445Y0049469D01*
X0020234Y0048470D02*
X0015972Y0048470D01*
X0015972Y0047472D02*
X0020234Y0047472D01*
X0020234Y0046473D02*
X0015972Y0046473D01*
X0015972Y0045474D02*
X0020234Y0045474D01*
X0020873Y0044476D02*
X0015972Y0044476D01*
X0015972Y0043477D02*
X0021872Y0043477D01*
X0022870Y0042479D02*
X0015972Y0042479D01*
M02*
