G75*
%MOIN*%
%OFA0B0*%
%FSLAX25Y25*%
%IPPOS*%
%LPD*%
%AMOC8*
5,1,8,0,0,1.08239X$1,22.5*
%
%ADD10C,0.13005*%
%ADD11R,0.03950X0.05524*%
%ADD12R,0.05524X0.03950*%
%ADD13R,0.06312X0.07099*%
%ADD14R,0.07099X0.07898*%
%ADD15R,0.06600X0.02800*%
%ADD16R,0.02800X0.06600*%
%ADD17C,0.07611*%
%ADD18R,0.10052X0.08280*%
%ADD19R,0.06706X0.14186*%
%ADD20C,0.07300*%
%ADD21R,0.04737X0.06312*%
%ADD22R,0.05131X0.04737*%
%ADD23OC8,0.08200*%
%ADD24R,0.08200X0.08200*%
%ADD25C,0.08200*%
%ADD26C,0.06706*%
D10*
X0032509Y0115186D03*
X0032509Y0237233D03*
X0167154Y0237233D03*
X0167154Y0115186D03*
D11*
X0121003Y0166859D03*
X0113916Y0166859D03*
X0113908Y0174809D03*
X0120994Y0174809D03*
X0128165Y0174807D03*
X0135252Y0174807D03*
X0135225Y0184265D03*
X0128139Y0184265D03*
X0120916Y0184290D03*
X0113829Y0184290D03*
X0095265Y0154093D03*
X0088178Y0154093D03*
X0054061Y0152469D03*
X0046974Y0152469D03*
D12*
X0071944Y0153360D03*
X0071944Y0146273D03*
X0111389Y0146266D03*
X0111389Y0153353D03*
D13*
X0119923Y0157298D03*
X0130946Y0157298D03*
D14*
X0039356Y0152458D03*
X0028159Y0152458D03*
D15*
X0072332Y0168502D03*
X0072332Y0171652D03*
X0072332Y0174802D03*
X0072332Y0177951D03*
X0072332Y0181101D03*
X0072332Y0184250D03*
X0072332Y0187400D03*
X0072332Y0190550D03*
X0104732Y0190550D03*
X0104732Y0187400D03*
X0104732Y0184250D03*
X0104732Y0181101D03*
X0104732Y0177951D03*
X0104732Y0174802D03*
X0104732Y0171652D03*
X0104732Y0168502D03*
D16*
X0099556Y0163326D03*
X0096406Y0163326D03*
X0093257Y0163326D03*
X0090107Y0163326D03*
X0086957Y0163326D03*
X0083808Y0163326D03*
X0080658Y0163326D03*
X0077509Y0163326D03*
X0077509Y0195726D03*
X0080658Y0195726D03*
X0083808Y0195726D03*
X0086957Y0195726D03*
X0090107Y0195726D03*
X0093257Y0195726D03*
X0096406Y0195726D03*
X0099556Y0195726D03*
D17*
X0066389Y0232234D03*
D18*
X0075739Y0242470D03*
X0057038Y0242470D03*
X0057038Y0221998D03*
X0075739Y0221998D03*
D19*
X0077412Y0232234D03*
X0055365Y0232234D03*
D20*
X0081823Y0146259D03*
X0101823Y0146259D03*
D21*
X0070107Y0205343D03*
X0062627Y0205343D03*
X0066367Y0214005D03*
D22*
X0069263Y0196926D03*
X0062570Y0196926D03*
D23*
X0038296Y0194753D03*
X0028296Y0194753D03*
X0028296Y0184753D03*
X0038296Y0184753D03*
X0038296Y0174753D03*
X0028296Y0174753D03*
X0028296Y0164753D03*
X0038296Y0164753D03*
X0158217Y0161879D03*
X0158217Y0171879D03*
X0158217Y0181879D03*
X0158217Y0191879D03*
X0168217Y0191879D03*
X0168217Y0181879D03*
X0168217Y0171879D03*
X0168217Y0161879D03*
X0168217Y0151879D03*
X0158217Y0151879D03*
D24*
X0109461Y0128560D03*
X0139461Y0218103D03*
D25*
X0129461Y0219103D03*
X0119461Y0218103D03*
X0109461Y0219103D03*
X0050146Y0135371D03*
X0040146Y0134371D03*
X0030146Y0135371D03*
X0119461Y0127560D03*
X0129461Y0128560D03*
X0139461Y0127560D03*
D26*
X0063611Y0154162D03*
X0063611Y0163611D03*
X0053769Y0192351D03*
M02*
