G75*
%MOIN*%
%OFA0B0*%
%FSLAX25Y25*%
%IPPOS*%
%LPD*%
%AMOC8*
5,1,8,0,0,1.08239X$1,22.5*
%
%ADD10R,0.03150X0.04724*%
%ADD11R,0.04724X0.03150*%
%ADD12R,0.05512X0.06299*%
%ADD13R,0.06299X0.07098*%
%ADD14R,0.05800X0.02000*%
%ADD15R,0.02000X0.05800*%
%ADD16C,0.06811*%
%ADD17R,0.09252X0.07480*%
%ADD18R,0.05906X0.13386*%
%ADD19R,0.03937X0.05512*%
%ADD20R,0.04331X0.03937*%
D10*
X0046974Y0152469D03*
X0054061Y0152469D03*
X0088178Y0154093D03*
X0095265Y0154093D03*
X0113916Y0166859D03*
X0121003Y0166859D03*
X0120994Y0174809D03*
X0113908Y0174809D03*
X0113829Y0184290D03*
X0120916Y0184290D03*
X0128139Y0184265D03*
X0135225Y0184265D03*
X0135252Y0174807D03*
X0128165Y0174807D03*
D11*
X0071944Y0146273D03*
X0071944Y0153360D03*
X0111389Y0153353D03*
X0111389Y0146266D03*
D12*
X0119923Y0157298D03*
X0130946Y0157298D03*
D13*
X0039356Y0152458D03*
X0028159Y0152458D03*
D14*
X0072332Y0168502D03*
X0072332Y0171652D03*
X0072332Y0174802D03*
X0072332Y0177951D03*
X0072332Y0181101D03*
X0072332Y0184250D03*
X0072332Y0187400D03*
X0072332Y0190550D03*
X0104732Y0190550D03*
X0104732Y0187400D03*
X0104732Y0184250D03*
X0104732Y0181101D03*
X0104732Y0177951D03*
X0104732Y0174802D03*
X0104732Y0171652D03*
X0104732Y0168502D03*
D15*
X0099556Y0163326D03*
X0096406Y0163326D03*
X0093257Y0163326D03*
X0090107Y0163326D03*
X0086957Y0163326D03*
X0083808Y0163326D03*
X0080658Y0163326D03*
X0077509Y0163326D03*
X0077509Y0195726D03*
X0080658Y0195726D03*
X0083808Y0195726D03*
X0086957Y0195726D03*
X0090107Y0195726D03*
X0093257Y0195726D03*
X0096406Y0195726D03*
X0099556Y0195726D03*
D16*
X0066389Y0232234D03*
D17*
X0075739Y0242470D03*
X0057038Y0242470D03*
X0057038Y0221998D03*
X0075739Y0221998D03*
D18*
X0077412Y0232234D03*
X0055365Y0232234D03*
D19*
X0066367Y0214005D03*
X0070107Y0205343D03*
X0062627Y0205343D03*
D20*
X0062570Y0196926D03*
X0069263Y0196926D03*
M02*
