%
M48
M72
T01C0.02756
T02C0.03937
T03C0.04000
T04C0.04134
T05C0.12205
%
T01
X81823Y146259
X101823Y146259
T02
X63611Y154162
X63611Y163611
X53769Y192351
T03
X38296Y194753
X28296Y194753
X28296Y184753
X38296Y184753
X38296Y174753
X28296Y174753
X28296Y164753
X38296Y164753
T04
X40146Y134371
X30146Y135371
X50146Y135371
X109461Y128560
X119461Y127560
X129461Y128560
X139461Y127560
X158217Y151879
X158217Y161879
X158217Y171879
X158217Y181879
X158217Y191879
X168217Y191879
X168217Y181879
X168217Y171879
X168217Y161879
X168217Y151879
X139461Y218103
X129461Y219103
X119461Y218103
X109461Y219103
T05
X32509Y115186
X32509Y237233
X167154Y237233
X167154Y115186
M30
